<svg xmlns="http://www.w3.org/2000/svg" width="101" height="101" fill="none"><g clip-path="url(#a)"><g clip-path="url(#b)"><g clip-path="url(#c)"><mask id="d" width="100" height="100" x="1" y="0" maskUnits="userSpaceOnUse" style="mask-type:luminance"><path fill="#fff" d="M100.225.98H1.383v98.842h98.842z"/></mask><g mask="url(#d)"><path fill="#3BB77E" d="M22.954 70.158a1.93 1.93 0 0 0-2.72.24l-4.827 5.764-1.744-1.478a1.93 1.93 0 0 0-2.496 2.946l3.226 2.733a1.93 1.93 0 0 0 2.728-.234l6.074-7.251a1.93 1.93 0 0 0-.24-2.72"/><path fill="#FDC040" d="M63.083 32.408v5.715c0 .714-2.857 2.857-3.571 2.857H46.654c-1.19-.238-3.57-.286-3.57 1.428v5l-2.858.715c-.714.476-2.143 1.571-2.143 2.143 0 .714-.714 2.142 0 2.857.714.714 2.143 1.428 2.857 2.143s2.143 0 2.143.714v2.857c0 .571.476 2.143.714 2.857.476.476 1.572 1.429 2.143 1.429.572 0 1.667.476 2.143.714v2.143c0 .571.952 2.143 1.428 2.857.715.476 2.43 1.429 3.572 1.429 1.428 0 13.571 1.428 15.714 1.428 1.715 0 7.381-.952 10-1.428l5-3.572 7.143-1.428h4.286l2.857-1.429v-3.571l.714-15-1.428-2.858h-5c-.572 0-3.096-1.904-4.286-2.857-.953-.714-2.857-2.285-2.857-2.857 0-.571-4.286-2.619-6.429-3.571l-2.857-.715H63.083M37.367 12.408v17.143l5.715-2.143 2.142-1.428 7.143 3.571 2.143-2.143-.714-13.571-2.143-1.429H37.367"/><path stroke="#000" stroke-linecap="round" stroke-linejoin="round" stroke-width="1.429" d="M63.082 32.408v5.715m0-5.715v5.715m0-5.715h2.142m-2.142 5.715c0 .714-2.858 2.857-3.572 2.857m5.714-8.572H75.94l2.857.715c2.143.952 6.428 3 6.428 3.571s1.905 2.143 2.858 2.857c1.19.953 3.714 2.857 4.285 2.857m-27.143-10h-2.857M59.51 40.98H46.653m12.857 0H46.653m0 0c-1.19-.238-3.571-.286-3.571 1.428m0 0v5m0-5v5m0 0-2.858.715c-.714.476-2.142 1.571-2.142 2.143 0 .714-.715 2.142 0 2.857.714.714 2.142 1.428 2.857 2.143.714.714 2.143 0 2.143.714m0 0v2.857m0-2.857v2.857m0 0c0 .571.476 2.143.714 2.857.476.476 1.571 1.429 2.143 1.429s1.666.476 2.142.714m0 0v2.143m0-2.143v2.143m0 0c0 .571.953 2.143 1.429 2.857.714.476 2.429 1.429 3.572 1.429 1.428 0 13.57 1.428 15.714 1.428 1.714 0 7.38-.952 10-1.428l5-3.572 7.143-1.428h4.285l2.858-1.429v-3.571l.714-15-1.429-2.858m0 0h-5m5 0h-5m-55-30v17.143m0-17.143h14.286l2.143 1.429.714 13.571-2.143 2.143-7.143-3.571-2.142 1.428-5.715 2.143m0-17.143v17.143"/><path fill="#3BB77E" d="M96.136 40.383h-2.774c-2.324-.107-4.193-2.086-6.356-4.377-1.445-1.53-2.992-3.169-4.856-4.383V15.12a5.28 5.28 0 0 0-5.27-5.271H13.91A5.277 5.277 0 0 0 8.64 15.12v13.392a1.93 1.93 0 1 0 3.86 0V15.12c0-.764.647-1.41 1.411-1.41h21.363v17.08a1.93 1.93 0 0 0 2.953 1.637l7.17-4.481 7.165 4.481a1.93 1.93 0 0 0 2.954-1.637V13.71H76.88c.765 0 1.41.646 1.41 1.41v14.866a10.6 10.6 0 0 0-1.984-.223H65.364c-2.327.037-3.523 1.092-4.116 1.97-.921 1.364-1.006 3.21-.241 5.199q.268.697.645 1.315H47.014a5.71 5.71 0 0 0-5.398 7.553h-.512a5.71 5.71 0 0 0-5.704 5.704 5.71 5.71 0 0 0 5.704 5.705h.51a5.714 5.714 0 0 0 5.096 7.545 5.71 5.71 0 0 0 5.396 7.555h23.919c.823 0 1.573-.1 2.264-.274v6.05c0 .767-.646 1.416-1.41 1.416H32.163c.378-1.35.585-2.77.585-4.237 0-8.648-7.035-15.684-15.683-15.684-1.587 0-3.12.24-4.565.68V45.868a1.93 1.93 0 0 0-3.86 0v16.179c-4.36 2.789-7.257 7.67-7.257 13.217 0 8.65 7.035 15.689 15.683 15.689 5.688 0 10.677-3.045 13.427-7.591H76.88a5.28 5.28 0 0 0 5.272-5.277v-7.949c.426-.304.834-.617 1.229-.922 1.705-1.313 3.177-2.448 5.521-2.448h7.235a4.09 4.09 0 0 0 4.089-4.083V44.472a4.093 4.093 0 0 0-4.089-4.089m-44.48-13.077-5.234-3.274a1.93 1.93 0 0 0-2.047 0l-5.24 3.275V13.71h12.52zm-34.59 59.786c-6.519 0-11.822-5.306-11.822-11.828 0-6.519 5.303-11.823 11.822-11.823s11.822 5.304 11.822 11.823c0 6.522-5.304 11.828-11.822 11.828m79.298-24.409a.23.23 0 0 1-.228.222h-7.235c-3.66 0-5.9 1.727-7.878 3.251-1.662 1.28-2.974 2.292-4.998 2.292H52.107a1.845 1.845 0 0 1-1.843-1.843c0-1.017.827-1.843 1.843-1.843h6.408a1.93 1.93 0 0 0 0-3.861H47.014a1.845 1.845 0 0 1 0-3.692h11.501a1.93 1.93 0 1 0 0-3.861h-17.41a1.845 1.845 0 0 1-1.844-1.844c0-1.016.827-1.843 1.843-1.843h17.411a1.93 1.93 0 1 0 0-3.86H47.014a1.845 1.845 0 0 1 0-3.692h28.53a1.93 1.93 0 1 0 0-3.862h-6.99a4.19 4.19 0 0 1-3.943-2.7c-.367-.955-.267-1.499-.163-1.653.105-.155.482-.26.963-.27h10.843c3.255.066 5.533 2.479 7.945 5.033 2.523 2.673 5.133 5.436 9.048 5.586l.074.001h2.816a.23.23 0 0 1 .227.228z"/><path fill="#3BB77E" d="M10.571 39.123c1.066 0 1.93-.87 1.93-1.936a1.93 1.93 0 1 0-3.86 0v.011c0 1.066.864 1.925 1.93 1.925"/></g></g></g></g><defs><clipPath id="a"><path fill="#fff" d="M.223.98h100v100h-100z"/></clipPath><clipPath id="b"><path fill="#fff" d="M.223.98h100v100h-100z"/></clipPath><clipPath id="c"><path fill="#fff" d="M.223.98h100v100h-100z"/></clipPath></defs></svg>