<svg xmlns="http://www.w3.org/2000/svg" width="100" height="101" fill="none"><g clip-path="url(#a)"><g clip-path="url(#b)"><g clip-path="url(#c)"><mask id="d" width="99" height="100" x="1" y="0" maskUnits="userSpaceOnUse" style="mask-type:luminance"><path fill="#fff" d="M99.73.98H1.083v98.649h98.649z"/></mask><g mask="url(#d)"><path fill="#FDC040" d="M20.715 24.552V50.98c5-1.667 17.286-2 26.428 10 2.143 4.524 5.572 15 2.143 20.714l10 5.715V44.55z"/><path fill="#3BB77E" d="M98.731 22.316 60.311 1.219a1.93 1.93 0 0 0-1.855 0L43.976 9.17c-.306.08-.592.234-.828.455l-23.111 12.69c-.616.339-1 .986-1 1.69V49.52a25.5 25.5 0 0 0-10.442 6.341 25.64 25.64 0 0 0-4.912 29.384 1.926 1.926 0 1 0 3.462-1.691 21.79 21.79 0 0 1 4.175-24.968 21.64 21.64 0 0 1 15.403-6.381 21.64 21.64 0 0 1 15.404 6.38 21.64 21.64 0 0 1 6.38 15.403 21.64 21.64 0 0 1-6.381 15.404 21.79 21.79 0 0 1-24.968 4.175 1.926 1.926 0 1 0-1.691 3.462 25.56 25.56 0 0 0 11.24 2.6 25.65 25.65 0 0 0 18.144-7.513 25.6 25.6 0 0 0 5.303-7.692l8.302 4.559a1.92 1.92 0 0 0 1.855 0l38.42-21.096c.617-.339 1-.986 1-1.69v-13.39a1.927 1.927 0 1 0-3.854 0v12.25l-34.56 18.978V46.238l11.406-6.263v9.928a1.926 1.926 0 0 0 2.855 1.689l8.233-4.532c.616-.339.997-.985.997-1.687V33.338l11.07-6.077v10.134a1.927 1.927 0 1 0 3.853 0v-13.39c0-.703-.383-1.351-1-1.69M59.384 5.106 93.8 24.004l-10.857 5.961-34.417-18.899zm0 37.797L24.967 24.005l11.254-6.18L70.64 36.722zm15.258-8.378L40.225 15.626l4.299-2.36L78.94 32.163zm-29.79 21.336c-4.843-4.842-11.281-7.509-18.129-7.509q-1.944.001-3.832.283V27.261l34.573 18.984v37.797l-6.001-3.295c.59-2.175.896-4.444.896-6.759 0-6.847-2.666-13.285-7.508-18.127m36.104-11.627-4.38 2.41V37.86l4.38-2.405z"/><path fill="#3BB77E" d="M97.802 43.164c-.507 0-1.004.206-1.362.565a1.94 1.94 0 0 0-.565 1.362c0 .506.206 1.003.565 1.361.358.36.855.565 1.362.565.506 0 1.004-.206 1.362-.565a1.94 1.94 0 0 0 .565-1.361 1.94 1.94 0 0 0-.565-1.362 1.94 1.94 0 0 0-1.362-.565M20.246 75.914a1.927 1.927 0 0 0 1.362-3.289l-1.335-1.335h11.388a5.015 5.015 0 0 1 5.01 5.01 5.015 5.015 0 0 1-5.01 5.009h-6.748a1.926 1.926 0 1 0 0 3.853h6.748c4.887 0 8.863-3.976 8.863-8.863s-3.976-8.862-8.863-8.862H20.273l1.335-1.335a1.927 1.927 0 0 0-2.725-2.725L14.26 68a1.93 1.93 0 0 0 0 2.725l4.624 4.624c.377.376.87.564 1.363.564M9.96 92.683a1.92 1.92 0 0 1-1.473-.686l-.004-.004a1.926 1.926 0 1 1 2.95-2.48 1.93 1.93 0 0 1-1.474 3.17"/></g></g></g></g><defs><clipPath id="a"><path fill="#fff" d="M0 .98h100v100H0z"/></clipPath><clipPath id="b"><path fill="#fff" d="M0 .98h100v100H0z"/></clipPath><clipPath id="c"><path fill="#fff" d="M0 .98h100v100H0z"/></clipPath></defs></svg>