<svg xmlns="http://www.w3.org/2000/svg" width="101" height="101" fill="none"><g clip-path="url(#a)"><g clip-path="url(#b)"><g clip-path="url(#c)"><mask id="d" width="100" height="100" x="0" y="0" maskUnits="userSpaceOnUse" style="mask-type:luminance"><path fill="#fff" d="M99.603.19H.762v98.842h98.841z"/></mask><g mask="url(#d)"><path fill="#FDC040" d="M67.367 95.904c14.201 0 25.714-11.512 25.714-25.714S81.568 44.476 67.367 44.476c-14.202 0-25.715 11.512-25.715 25.714s11.513 25.714 25.715 25.714"/><path fill="#3BB77E" d="M72.567 42.978V24.272c0-.535-.247-1.03-.597-1.421L50.998.829a2.1 2.1 0 0 0-1.503-.64h-33.25C10.106.19 5.203 5.197 5.203 11.336v62.873c0 6.14 4.903 11.063 11.042 11.063H42.49c4.965 8.24 13.988 13.76 24.267 13.76 15.616 0 28.368-12.69 28.368-28.325.02-13.658-9.786-25.07-22.558-27.728M51.555 7.42l14.07 14.811h-9.126c-2.72 0-4.944-2.245-4.944-4.964zm-35.31 73.73c-3.852 0-6.921-3.09-6.921-6.943V11.335c0-3.873 3.069-7.025 6.92-7.025h31.19v12.958c0 5.006 4.059 9.085 9.065 9.085h11.948V42.44c-.618-.02-1.113-.082-1.648-.082-7.19 0-13.802 2.761-18.788 7.087H21.85c-1.134 0-2.06.927-2.06 2.06s.926 2.06 2.06 2.06h22.33c-1.462 2.06-2.678 4.12-3.625 6.386H21.849c-1.134 0-2.06.927-2.06 2.06s.926 2.06 2.06 2.06h17.366c-.515 2.061-.783 4.348-.783 6.634 0 3.708.72 7.375 2.019 10.465H16.245zm50.534 13.781c-13.35 0-24.206-10.856-24.206-24.206s10.835-24.205 24.206-24.205c13.369 0 24.205 10.856 24.205 24.205 0 13.35-10.856 24.206-24.205 24.206"/><path fill="#3BB77E" d="M21.85 43.245h20.868c1.133 0 2.06-.927 2.06-2.06s-.927-2.06-2.06-2.06H21.849c-1.133 0-2.06.927-2.06 2.06s.927 2.06 2.06 2.06M66.099 58.016a2.06 2.06 0 0 0 1.072-.021 5.275 5.275 0 0 1 4.84 5.254c0 1.132.928 2.06 2.06 2.06 1.134 0 2.06-.928 2.06-2.06 0-4.532-3.213-8.323-7.477-9.21v-1.318c0-1.133-.928-2.06-2.06-2.06-1.134 0-2.06.927-2.06 2.06v1.402c-4.121.988-7.19 4.717-7.19 9.126 0 5.191 4.223 9.393 9.394 9.393a5.284 5.284 0 0 1 0 10.569 5.284 5.284 0 0 1-5.274-5.275c0-1.132-.927-2.06-2.06-2.06s-2.06.928-2.06 2.06c0 4.43 3.069 8.138 7.19 9.126v2.123c0 1.133.926 2.06 2.06 2.06 1.132 0 2.06-.927 2.06-2.06v-2.06c4.264-.887 7.478-4.677 7.478-9.209 0-5.191-4.224-9.394-9.394-9.394a5.284 5.284 0 0 1-5.274-5.273c0-2.679 2.019-4.924 4.635-5.233"/></g></g></g></g><defs><clipPath id="a"><path fill="#fff" d="M.223.19h100v100h-100z"/></clipPath><clipPath id="b"><path fill="#fff" d="M.223.19h100v100h-100z"/></clipPath><clipPath id="c"><path fill="#fff" d="M.223.19h100v100h-100z"/></clipPath></defs></svg>