<svg xmlns="http://www.w3.org/2000/svg" width="101" height="101" fill="none"><g clip-path="url(#a)"><g clip-path="url(#b)"><g clip-path="url(#c)"><mask id="d" width="100" height="100" x="1" y="0" maskUnits="userSpaceOnUse" style="mask-type:luminance"><path fill="#fff" d="M100.435.98H1.594v98.842h98.841z"/></mask><g mask="url(#d)"><path fill="#3BB77E" d="M74.144 94.224a1.93 1.93 0 0 0-1.922 1.736H57.695l-2.292-13.8 2.547-2.548a1.93 1.93 0 0 0 0-2.73l-2.254-2.254h3.852c4.227 0 8.16 2.098 10.521 5.612a1.93 1.93 0 1 0 3.205-2.153 16.51 16.51 0 0 0-13.596-7.318 11.63 11.63 0 0 0 3.01-7.816V60.12c0-6.437-5.237-11.675-11.675-11.675-6.437 0-11.675 5.238-11.675 11.675v2.832a11.63 11.63 0 0 0 3.012 7.817c-9.053.07-16.397 7.454-16.397 16.523V97.89a1.93 1.93 0 0 0 1.93 1.93h46.26a1.93 1.93 0 0 0 1.93-1.93v-1.737a1.93 1.93 0 0 0-1.93-1.93M51.036 81.067l-2.82-2.82 2.82-2.82 2.82 2.82zm-1 4.38a1.926 1.926 0 0 0 1.998 0l1.747 10.513h-5.49zM43.2 60.12c0-4.308 3.505-7.814 7.814-7.814s7.814 3.505 7.814 7.814v2.832c0 4.308-3.505 7.814-7.814 7.814S43.2 67.262 43.2 62.953zM29.815 87.293c0-6.984 5.681-12.665 12.664-12.665h3.896l-2.254 2.254a1.93 1.93 0 0 0 0 2.73l2.548 2.547-2.292 13.801H29.814z"/><path fill="#FDC040" d="M40.781 3.123c.572 0 13.572.476 20 .714v20.714l-20-.714zM86.496 3.837l-10 18.571h21.429l-10-17.857z"/><path stroke="#000" stroke-linecap="round" stroke-linejoin="round" stroke-width="1.429" d="M40.781 3.123c.572 0 13.572.476 20 .714v20.714l-20-.714zM86.496 3.837l-10 18.571h21.429l-10-17.857z"/><path fill="#3BB77E" d="M26.282 13.326C26.282 6.518 20.744.98 13.938.98S1.594 6.52 1.594 13.326c0 6.806 5.537 12.343 12.344 12.343s12.344-5.537 12.344-12.343m-20.827 0c0-4.678 3.805-8.484 8.483-8.484 4.677 0 8.483 3.806 8.483 8.484 0 4.677-3.806 8.482-8.483 8.482s-8.483-3.805-8.483-8.482M40.602 25.668H61.43a1.93 1.93 0 0 0 1.93-1.93V2.91A1.93 1.93 0 0 0 61.43.98H40.602a1.93 1.93 0 0 0-1.93 1.93v20.828a1.93 1.93 0 0 0 1.93 1.93m1.93-20.827H59.5v16.966H42.533zM100.178 22.005 89.038 2.712a1.93 1.93 0 0 0-3.343 0l-11.14 19.293a1.93 1.93 0 0 0 1.672 2.896h22.279a1.932 1.932 0 0 0 1.672-2.896m-20.607-.965 7.795-13.502 7.796 13.502zM51.013 44.656a1.93 1.93 0 0 0 1.93-1.93v-5.509l.079.11a1.93 1.93 0 0 0 2.693.446 1.93 1.93 0 0 0 .447-2.693l-3.579-5a1.93 1.93 0 0 0-3.14 0l-3.578 5a1.93 1.93 0 0 0 3.14 2.247l.078-.11v5.509a1.93 1.93 0 0 0 1.93 1.93M35.122 60.291a1.93 1.93 0 0 0-1.93-1.93H15.88V37.217l.078.11a1.93 1.93 0 0 0 2.694.446 1.93 1.93 0 0 0 .446-2.693l-3.578-5a1.93 1.93 0 0 0-3.14 0l-3.579 5a1.93 1.93 0 1 0 3.14 2.247l.078-.11v23.074a1.93 1.93 0 0 0 1.93 1.93h19.241a1.93 1.93 0 0 0 1.93-1.93M89.651 30.079a1.93 1.93 0 0 0-3.14 0l-3.578 5a1.93 1.93 0 0 0 3.14 2.247l.078-.109v21.144H68.84a1.93 1.93 0 0 0 0 3.86h19.24a1.93 1.93 0 0 0 1.93-1.93V37.217l.08.11a1.93 1.93 0 0 0 2.693.446 1.93 1.93 0 0 0 .446-2.693zM74.145 89.397a1.93 1.93 0 1 0 0-3.86 1.93 1.93 0 0 0 0 3.86"/></g></g></g></g><defs><clipPath id="a"><path fill="#fff" d="M.781.98h100v100h-100z"/></clipPath><clipPath id="b"><path fill="#fff" d="M.781.98h100v100h-100z"/></clipPath><clipPath id="c"><path fill="#fff" d="M.781.98h100v100h-100z"/></clipPath></defs></svg>