<svg xmlns="http://www.w3.org/2000/svg" width="101" height="101" fill="none"><g clip-path="url(#a)"><g clip-path="url(#b)"><mask id="c" width="100" height="100" x="0" y="0" maskUnits="userSpaceOnUse" style="mask-type:luminance"><path fill="#fff" d="M99.623.19H.781v98.842h98.842z"/></mask><g mask="url(#c)"><path fill="#FDC040" d="M63.64 7.333H49.354L32.21 24.476l8.571 5 8.572-8.572L67.21 38.761l6.429 7.857 9.285 1.43 4.286-7.858V13.047l-7.143-5.714z"/><path fill="#3BB77E" d="M93.06 20.745h-3.865l.003-6.91c.003-4.638-3.769-8.414-8.408-8.416l-29.332-.017h-.003c-1.67 0-3.24.65-4.42 1.831l-43.79 43.79A8.36 8.36 0 0 0 .78 56.97c0 2.247.875 4.36 2.464 5.948l28.418 28.418a8.39 8.39 0 0 0 5.948 2.46c2.154 0 4.309-.82 5.949-2.46l27.57-27.57a1.93 1.93 0 1 0-2.73-2.73l-27.57 27.57a4.556 4.556 0 0 1-6.437 0L5.976 60.189a4.52 4.52 0 0 1-1.334-3.218c0-1.216.474-2.36 1.334-3.219L49.764 9.964a2.38 2.38 0 0 1 1.69-.7h.002l29.332.016a4.557 4.557 0 0 1 4.55 4.554l-.01 16.177h-8.695a2.7 2.7 0 0 1-1.917-.8 7.1 7.1 0 0 0 2.223-1.504c2.774-2.775 2.774-7.29 0-10.063a7.124 7.124 0 0 0-10.064 0c-2.775 2.774-2.775 7.288 0 10.063a7.1 7.1 0 0 0 3.626 1.941 6.57 6.57 0 0 0 6.132 4.224h8.693l-.005 9.254a2.37 2.37 0 0 1-.7 1.69l-5.3 5.3a1.93 1.93 0 0 0 2.73 2.73l5.3-5.3a6.21 6.21 0 0 0 1.83-4.417l.006-9.257h3.872a6.57 6.57 0 0 0 6.564-6.564 6.57 6.57 0 0 0-6.564-6.564m-23.455-.372a3.24 3.24 0 0 1 2.302-.951c.834 0 1.667.317 2.302.951q.299.305.504.659a6.59 6.59 0 0 0-4.393 4.482 3.2 3.2 0 0 1-.715-.537 3.26 3.26 0 0 1 0-4.603m23.454 9.638h-3.87l.003-5.405h3.867a2.706 2.706 0 0 1 2.703 2.702 2.706 2.706 0 0 1-2.703 2.703"/><path fill="#3BB77E" d="M31.942 54.11a1.93 1.93 0 0 0 2.377 1.342l19.818-5.516a1.931 1.931 0 0 0-1.035-3.72l-19.818 5.516a1.93 1.93 0 0 0-1.342 2.378M40.667 56.657A5.65 5.65 0 0 0 39 60.682c0 1.52.592 2.95 1.667 4.025a5.68 5.68 0 0 0 4.025 1.664 5.68 5.68 0 0 0 4.025-1.664 5.7 5.7 0 0 0 0-8.05 5.7 5.7 0 0 0-8.05 0m5.32 5.32a1.833 1.833 0 0 1-3.126-1.295 1.829 1.829 0 0 1 1.83-1.83c.47 0 .939.178 1.296.535a1.833 1.833 0 0 1 0 2.59M49.672 45.163a5.7 5.7 0 0 0 0-8.05 5.66 5.66 0 0 0-4.026-1.667c-1.52 0-2.95.592-4.025 1.667a5.7 5.7 0 0 0 0 8.05 5.68 5.68 0 0 0 4.025 1.664 5.68 5.68 0 0 0 4.026-1.664m-5.32-5.32a1.82 1.82 0 0 1 1.294-.536 1.833 1.833 0 0 1 1.295 3.126 1.833 1.833 0 0 1-2.59 0 1.834 1.834 0 0 1 0-2.59"/><path fill="#3BB77E" d="M19.98 50.12a1.93 1.93 0 0 0-2.73 0l-5.485 5.486a1.93 1.93 0 0 0 0 2.73l24.48 24.48c.377.376.871.565 1.365.565s.988-.189 1.365-.565l36.601-36.602a1.93 1.93 0 0 0 0-2.73l-24.48-24.48a1.93 1.93 0 0 0-2.73 0L28.172 39.2a1.93 1.93 0 0 0 2.73 2.73L49.73 23.1l21.75 21.75-33.87 33.87-21.75-21.75 4.12-4.12a1.93 1.93 0 0 0 0-2.73M75.224 55.01c-.509 0-1.007.207-1.365.566a1.95 1.95 0 0 0-.566 1.365c0 .508.207 1.006.566 1.365.359.36.856.566 1.365.566.507 0 1.005-.207 1.364-.566s.566-.857.566-1.365c0-.507-.207-1.006-.566-1.365a1.95 1.95 0 0 0-1.364-.565"/><path fill="#3BB77E" d="M25.44 47.39c.36-.36.566-.856.566-1.366a1.94 1.94 0 0 0-.567-1.365 1.94 1.94 0 0 0-1.364-.565c-.508 0-1.006.206-1.365.565-.36.36-.566.858-.566 1.365 0 .51.206 1.006.566 1.365a1.931 1.931 0 0 0 2.729 0"/></g></g></g><defs><clipPath id="a"><path fill="#fff" d="M.781.19h100v100h-100z"/></clipPath><clipPath id="b"><path fill="#fff" d="M.781.19h100v100h-100z"/></clipPath></defs></svg>