<svg xmlns="http://www.w3.org/2000/svg" width="100" height="101" fill="none"><g clip-path="url(#a)"><g clip-path="url(#b)"><mask id="c" width="100" height="100" x="0" y="0" maskUnits="userSpaceOnUse" style="mask-type:luminance"><path fill="#fff" d="M99.111.19H.27v98.842H99.11z"/></mask><g mask="url(#c)"><path fill="#FDC040" d="m63.57 47.333 5-7.857 7.143-3.572c.953-.238 3-.571 3.572 0 .571.572 8.81 11.667 12.857 17.143l3.571 6.429c-.714 1.428-2.285 4.428-2.857 5-.571.571-5.952 3.095-8.571 4.285-1.429.239-4.429.715-5 .715-.572 0-7.381-9.048-10.715-13.572l-3.75-6.428z"/><path fill="#FDC040" d="M79.285 69.476c-.571 0-7.38-9.048-10.714-13.572l-3.75-6.428h-9.822c-.714 0-4.285 1.428-5.714 2.143L45 53.76c-1.428.715-2.857 2.143-3.571 2.858-.714.714-2.143 2.857-2.143 3.571s0 2.143.714 2.857c.715.714 2.143 1.429 2.858 1.429h4.285c1.143 0 4.286-1.429 5.715-2.143.476.238 1.571.857 2.142 1.428.572.572 5.477 4.048 7.858 5.715l5.714 5.714c.952.476 3 1.286 3.571.714.572-.571 2.62-2.143 3.572-2.857l2.143-1.428zM22.14 77.333c0 1.143 1.905 3.333 2.858 4.285l5 4.286 2.857 2.143 2.857 2.857c.952.476 2.857 1.572 2.857 2.143 0 .572 2.857 1.19 4.286 1.429.714-.477 2.286-1.572 2.857-2.143.714-.715.714-.715.714-2.143 0-1.429 0-2.857-.714-4.286s-.714-4.285-1.429-5c-.714-.714-3.57-2.143-3.57-2.857s-2.144-3.571-2.858-4.286-2.143-3.571-2.857-4.285c-.715-.715-2.857-2.143-4.286-1.429s-5.714 4.286-6.428 5c-.572.572-1.667 3.095-2.143 4.286M35.714 7.333c4.285 5.952 16.571 17.571 31.428 16.428l-2.857 8.572L60 35.904 46.428 40.19l-10.714-3.572-6.429-11.428.714-9.286 3.572-6.428z"/><path fill="#3BB77E" d="M48.09 25.868c-.755 0-1.68-.11-2.312-.816-.22-.247-.413-.48-.6-.672-1.509-1.587-4.107.617-2.532 2.678l.38.49q.372.464 1.331 1.076a6.4 6.4 0 0 0 2.087.854V32.2c0 .937.764 1.708 1.7 1.708.942 0 1.74-.771 1.74-1.708v-2.74a6.2 6.2 0 0 0 3.154-1.796q1.305-1.364 1.305-3.621 0-1.537-.595-2.568-.592-1.027-1.459-1.433a13.6 13.6 0 0 0-1.915-.711 14.4 14.4 0 0 0-1.91-.436c-.578-.083-1.062-.26-1.459-.518q-.594-.396-.594-1.03c0-2.029 2.972-1.78 4.282-.678 1.932 1.625 4.095-1.35 1.855-3.032l-.259-.231c-.176-.138-.484-.309-.93-.524a6.5 6.5 0 0 0-1.475-.49v-2.364c0-.937-.766-1.709-1.707-1.709-.935 0-1.706.771-1.706 1.709v2.336c-1.255.248-2.295.871-3.016 1.791-.727.938-1.096 1.974-1.096 3.13 0 1.164.27 2.117.81 2.872q.807 1.131 1.97 1.593 1.155.465 2.312.738c.776.188 1.431.392 1.97.629q.81.345.81.98-.002 1.77-2.141 1.77"/><path fill="#3BB77E" d="M97.069 55.952 81.206 35.634a5.59 5.59 0 0 0-4.444-2.16c-1.24 0-2.412.394-3.397 1.141l-10.38 7.913a5.5 5.5 0 0 0-2.183 4.36c-3.957-.3-8.045.002-12.015 2.583l-.178.115-10.042-1.535q.032-.523-.036-1.053a5.5 5.5 0 0 0-2.136-3.693L26.012 35.4c-2.433-1.86-5.95-1.409-7.843 1.01l-3.78 4.845a1.946 1.946 0 1 0 3.068 2.395l3.78-4.843c.573-.731 1.676-.875 2.413-.312l10.386 7.908c.352.268.576.658.633 1.097.057.44-.061.874-.332 1.222L18.47 69.043c-.569.73-1.673.872-2.408.315L5.68 61.443c-.354-.27-.58-.66-.636-1.1-.057-.437.062-.87.335-1.218l2.698-3.456a1.946 1.946 0 1 0-3.07-2.395l-2.696 3.453a5.5 5.5 0 0 0-1.13 4.113c.191 1.48.95 2.794 2.138 3.7l10.385 7.917a5.6 5.6 0 0 0 3.392 1.137c.686 0 1.37-.126 2.013-.37l1.344 1.842c-.73 1.332-.844 2.933-.257 4.478.839 2.209 2.82 3.707 4.961 3.778.067.314.159.629.284.94.864 2.14 2.836 3.596 4.954 3.692.01.056.017.111.029.167.403 1.959 1.906 3.632 3.829 4.262.49.16.983.243 1.472.258.187.789.579 1.55 1.18 2.22a5.14 5.14 0 0 0 3.81 1.709c1.091 0 2.252-.354 3.369-1.17l2.204 2.06a5.76 5.76 0 0 0 3.936 1.572c1.42 0 2.826-.539 3.9-1.613a6.6 6.6 0 0 0 1.457-2.206 5.5 5.5 0 0 0 1.594.245 5.04 5.04 0 0 0 3.63-1.55c.748-.77 1.283-1.793 1.52-2.885a6 6 0 0 0 .294.008c1.536 0 3.01-.595 4.05-1.637a5.54 5.54 0 0 0 1.47-2.609q.557.11 1.116.11.704.001 1.397-.175a5.22 5.22 0 0 0 3.783-3.83c.42-1.735-.013-3.563-1.194-5.225 3.058-2.46 4.294-3.672 5.691-5.937a5.62 5.62 0 0 0 3.343 1.088 5.55 5.55 0 0 0 3.396-1.144l10.388-7.909a5.5 5.5 0 0 0 2.134-3.692 5.5 5.5 0 0 0-1.125-4.119M26.177 79.029c-.298.27-.588.406-.86.406-.56 0-1.21-.56-1.48-1.274-.247-.648-.132-1.19.342-1.612l.006-.005.006-.005 6.559-5.83c.549-.487 1.1-.744 1.597-.744.726 0 1.27.551 1.466 1.064.211.548.084 1.037-.374 1.452l-1.144 1.03-.003.003-.016.015-.125.113zm5.301 4.653c-.295.261-.577.388-.86.388-.591 0-1.278-.555-1.565-1.265-.315-.782.06-1.142.177-1.257.077-.073.168-.16.263-.262l.002-.002.02-.017c.374-.335 3.672-3.314 5.248-4.738l.117-.106c.534-.469 1.075-.716 1.565-.716.773 0 1.349.591 1.556 1.14.207.547.083 1.025-.366 1.42l-.404.356-.009.007-.003.003zm5.803 4.202q-.04.037-.078.074l-.457.412c-.406.367-.813.467-1.28.314-.59-.194-1.106-.76-1.227-1.347-.105-.51.1-.984.618-1.44l.65-.568q.023-.022.046-.045l4.255-3.742c1.02-.901 2.03-.992 2.702-.24.094.105.896 1.058-.083 1.942l-2.613 2.359q-.042.034-.084.072-.014.015-.028.028l-2.391 2.158q-.015.01-.03.023m2.52 4.372c-.205-.228-.6-.818.049-1.442l2.607-2.352q.297-.255.565-.395l.025-.012c1.05-.562 1.62.093 1.77.306.192.275.427.815-.163 1.345l-1.786 1.606-.02.018-.775.696c-1.272 1.142-2.06.465-2.272.23m30.85-10.283c-.119.493-.47.848-.965.975-.819.21-1.855-.245-2.804-1.219a6 6 0 0 0-.22-.231l-7.35-7.264a1.947 1.947 0 0 0-2.737 2.769l7.337 7.252.037.039c.293.301.456.704.458 1.14.001.46-.173.89-.492 1.209-.315.315-.785.495-1.294.495h-.02c-.45-.005-.862-.156-1.15-.419a5 5 0 0 0-.401-.456l-5.372-5.38a1.947 1.947 0 0 0-2.756 2.752l5.095 5.101q.092.136.208.258l.217.223c.28.532.106 1.428-.429 1.979-.825.85-1.986.1-2.813-.676l-2.301-2.166a1.947 1.947 0 0 0-2.67 2.835l1.758 1.654.012.013c.04.037.101.094.104.29.008.456-.294 1.082-.733 1.521-.64.641-1.705.618-2.423-.052l-1.927-1.8.236-.212c1.91-1.716 2.218-4.378.75-6.475a5.2 5.2 0 0 0-1.749-1.58c.947-1.868.682-4.134-.846-5.842a5.4 5.4 0 0 0-3.438-1.768 5.3 5.3 0 0 0-.33-1.466 5.67 5.67 0 0 0-3.86-3.486 5.2 5.2 0 0 0-.336-2.355c-.819-2.13-2.868-3.56-5.1-3.56-1.463 0-2.909.597-4.182 1.726l-4.97 4.418-1.093-1.496 14.82-18.981 6.775 1.036-1.025.665c-5.49 3.562-5.892 7.705-4.437 10.394 1.164 2.153 3.488 3.383 5.954 3.383a7.54 7.54 0 0 0 3.127-.684l5.132-2.545 2.963 2.698.01.007.007.009 13.696 12.18c1.173 1.043 1.745 2.199 1.528 3.092m-.163-7.09L58.024 63.8l-3.938-3.586a1.95 1.95 0 0 0-2.175-.305l-6.283 3.115c-1.707.735-3.386.036-3.97-1.042-.8-1.48.4-3.503 3.133-5.276l6.117-3.969c3.316-2.156 6.795-2.322 11.555-1.77l13.78 17.658c-1.454 2.612-2.226 3.44-5.755 6.26m23.845-15.312a1.63 1.63 0 0 1-.633 1.095l-10.39 7.91a1.7 1.7 0 0 1-1.034.346 1.73 1.73 0 0 1-1.374-.658l-15.86-20.321a1.63 1.63 0 0 1-.334-1.218c.057-.44.282-.83.636-1.1l10.378-7.911a1.7 1.7 0 0 1 1.04-.346c.547 0 1.047.24 1.374.66l15.862 20.318c.273.35.392.785.335 1.225"/><path fill="#3BB77E" d="M38.266 39.739a21.1 21.1 0 0 0 9.985 2.52c11.588 0 21.015-9.437 21.015-21.037 0-8.096-4.727-15.562-12.04-19.02A20.8 20.8 0 0 0 48.25.19c-11.584 0-21.009 9.435-21.009 21.032 0 7.735 4.223 14.83 11.024 18.517m9.985-35.656c2.557 0 5.015.551 7.309 1.638 5.96 2.818 9.812 8.903 9.812 15.5 0 9.455-7.68 17.145-17.12 17.145-2.833 0-5.646-.71-8.133-2.052a17.15 17.15 0 0 1-8.983-15.092c0-9.45 7.678-17.139 17.115-17.139M10.018 49.98a1.943 1.943 0 0 0 2.736-.308l.022-.027a1.947 1.947 0 1 0-3.044-2.428l-.022.028c-.67.84-.533 2.065.308 2.735"/></g></g></g><defs><clipPath id="a"><path fill="#fff" d="M0 .19h100v100H0z"/></clipPath><clipPath id="b"><path fill="#fff" d="M0 .19h100v100H0z"/></clipPath></defs></svg>