<svg width="19" height="25" viewBox="0 0 19 25" fill="none" xmlns="http://www.w3.org/2000/svg">
<path d="M18.4023 24.653H16.4023V19.61C16.4015 18.826 16.0897 18.0744 15.5354 17.52C14.981 16.9656 14.2293 16.6538 13.4453 16.653H5.35934C4.57533 16.6538 3.82367 16.9656 3.2693 17.52C2.71493 18.0744 2.40313 18.826 2.40234 19.61V24.653H0.402344V19.61C0.403924 18.2958 0.926694 17.0359 1.85596 16.1066C2.78523 15.1774 4.04514 14.6546 5.35934 14.653H13.4453C14.7595 14.6546 16.0194 15.1774 16.9487 16.1066C17.878 17.0359 18.4007 18.2958 18.4023 19.61V24.653Z" fill="#253D4E"/>
<path d="M9.4023 12.653C8.2157 12.653 7.0556 12.3011 6.06892 11.6418C5.08222 10.9825 4.31319 10.0455 3.85906 8.94912C3.40494 7.85276 3.28612 6.64636 3.51763 5.48248C3.74914 4.31859 4.32058 3.24949 5.1597 2.41038C5.99881 1.57126 7.0679 0.999817 8.2318 0.768306C9.3957 0.536795 10.6021 0.655615 11.6984 1.10974C12.7948 1.56387 13.7319 2.3329 14.3912 3.3196C15.0504 4.30629 15.4023 5.46633 15.4023 6.65302C15.4007 8.24383 14.7681 9.76903 13.6432 10.8939C12.5184 12.0188 10.9932 12.6514 9.4023 12.653ZM9.4023 2.65302C8.6112 2.65302 7.8379 2.88761 7.1801 3.32714C6.52226 3.76667 6.00957 4.39138 5.70682 5.12229C5.40407 5.85319 5.32486 6.65746 5.4792 7.43338C5.63354 8.2093 6.0145 8.92204 6.57391 9.48145C7.1333 10.0409 7.8461 10.4218 8.622 10.5762C9.3979 10.7305 10.2022 10.6513 10.9331 10.3485C11.664 10.0458 12.2887 9.5331 12.7282 8.8753C13.1677 8.2175 13.4023 7.44414 13.4023 6.65302C13.4023 5.59215 12.9809 4.57474 12.2308 3.82459C11.4806 3.07445 10.4632 2.65302 9.4023 2.65302Z" fill="#253D4E"/>
</svg>
