<svg xmlns="http://www.w3.org/2000/svg" width="36" height="37" fill="none"><g clip-path="url(#a)"><g clip-path="url(#b)"><g clip-path="url(#c)"><path fill="#FDC040" d="m4.5 14.79-.45-2.475v-2.25c.076-.525.27-1.575.45-1.575s1.35-.45 2.25-.675l1.8-.225c.45 0 .676 0 2.926-.45.176-.035 1.35-.225 1.8-.225l-.675-.9.9.9.9.9.225.675c-.3.075-.99.225-1.35.225h-1.8l-.9.45v.675c0 .18-.15 1.725-.225 2.475l-.225 2.25-.9.225H4.5M21.148 8.715l.9-1.125 2.925-2.025 3.375-1.35c1.05-.3 3.42-.765 4.5-.225 1.35.675 1.575.9 2.7 2.925-.075 1.575-.36 4.86-.9 5.4l-1.125 2.025-.675.45h-9.899999999999999v-1.575c0-.225-.225-1.8-.225-2.025V9.84l-.225-.9-.45-.225z"/><path fill="#3BB77E" d="M25.845 7.119c-.313.313-.486.729-.486 1.172s.173.858.486 1.172l3.831 3.83c.313.314.73.486 1.172.486.443 0 .859-.172 1.172-.485s.485-.73.485-1.172c0-.443-.172-.86-.485-1.172l-3.831-3.831a1.66 1.66 0 0 0-2.344 0m5.429 4.577a.6.6 0 0 1 0 .852.6.6 0 0 1-.852 0L26.59 8.717a.6.6 0 0 1 0-.853.6.6 0 0 1 .853 0z"/><path fill="#3BB77E" d="M35.872 16.827a3.18 3.18 0 0 0-2.013-2.334c2.495-4.162 2.84-8.06.845-10.056-.876-.875-2.144-1.324-3.67-1.296a.527.527 0 0 0 .01 1.055h.01c1.248-.023 2.226.31 2.904.987 1.048 1.048 1.076 2.64.915 3.791-.227 1.628-.964 3.464-2.132 5.325a769 769 0 0 0-9.156-.12 54 54 0 0 0-.333-5.413.53.53 0 0 0-.468-.465q-.235-.025-.472-.048c2.226-1.882 4.607-3.208 6.797-3.773a.527.527 0 1 0-.263-1.022c-.84.217-1.703.536-2.573.948.169-.737.25-1.62-.074-2.28a1.45 1.45 0 0 0-.933-.783c-.616-.17-1.572-.081-2.635 1.315a7 7 0 0 0-.149.203l-.017-.06c-.21-.695-.755-1.86-2.067-1.86-.455 0-.852.181-1.148.524-.387.449-.556 1.145-.616 1.84-.462-.608-1.02-1.095-1.625-1.095-.393 0-.752.2-1.01.563-.678.957-.688 3.032-.057 5.206l-.474.008c-1.033-1.205-2.282-2.035-2.828-2.367V4.464a.53.53 0 0 0 .436-.519V2.456c0-.802-.653-1.455-1.456-1.455H8.341c-.802 0-1.455.653-1.455 1.455v1.49c0 .26.188.475.436.518V5.62c-.713.432-2.615 1.707-3.68 3.558-.216.376-.317.809-.29 1.254.051.81.178 2.386.454 3.857l-.648.012a3.17 3.17 0 0 0-3.03 2.526 6.3 6.3 0 0 0 0 2.536 3.17 3.17 0 0 0 1.949 2.31c.058 1.074.157 2.6.32 4.336a256 256 0 0 0-1.276 3.697 2.27 2.27 0 0 0 1.109 2.738c.376.19.771.337 1.176.44a5.75 5.75 0 0 0 1.968 2.688 5.73 5.73 0 0 0 3.48 1.168h18.292c1.267 0 2.47-.404 3.48-1.168a5.75 5.75 0 0 0 1.968-2.69 5.8 5.8 0 0 0 1.176-.44c.989-.499 1.466-1.676 1.11-2.737q-.623-1.848-1.276-3.697c.162-1.735.262-3.261.32-4.335a3.17 3.17 0 0 0 1.948-2.31c.17-.841.17-1.695 0-2.536M22.25 9.307a53 53 0 0 1 .28 4.866c-3.911-.023-7.83-.017-11.737.02.018-1.621.112-3.26.281-4.887 3.71-.37 7.466-.37 11.176 0m-5.39-5.924c.039-.054.096-.119.149-.119.38 0 1.176 1.084 1.742 2.37a.527.527 0 0 0 1.006-.296c-.263-1.782.03-2.88.292-3.184a.42.42 0 0 1 .35-.159c1.215 0 1.256 2.42 1.256 2.443a.527.527 0 0 0 1.01.213c.377-.853 1.439-2.536 2.319-2.292a.4.4 0 0 1 .268.232c.225.457.105 1.468-.288 2.501-1.395.802-2.786 1.828-4.105 3.036a57 57 0 0 0-3.816-.152c-.734-2.304-.562-4.057-.183-4.593m-5.275 2.012H8.376v-.922h3.21zm-3.244-3.34h3.28c.22 0 .4.18.4.401v.962h-4.08v-.962c0-.22.18-.4.4-.4M4.846 14.113c-.268-1.42-.391-2.957-.44-3.746a1.17 1.17 0 0 1 .15-.662c1.007-1.749 2.95-2.97 3.434-3.254h3.982c.308.181 1.212.744 2.088 1.584q-1.764.079-3.52.267a.53.53 0 0 0-.468.466 54 54 0 0 0-.333 5.436q-2.43.027-4.85.067a1 1 0 0 1-.043-.158m-1.701 7.777h.03l.71.013a262 262 0 0 0-.63 1.706c-.046-.642-.082-1.222-.11-1.72m24 13.796H8.856A4.76 4.76 0 0 1 4.548 32.9a2.28 2.28 0 0 0 1.57-1.375c.303-.775.58-1.489.843-2.182a.527.527 0 1 0-.985-.375c-.263.69-.538 1.4-.84 2.172a1.21 1.21 0 0 1-1.388.742 4.7 4.7 0 0 1-1.043-.38 1.21 1.21 0 0 1-.585-1.46 259 259 0 0 1 4.383-12.044 1.21 1.21 0 0 1 1.386-.743q.548.129 1.046.38c.524.265.775.893.584 1.461a259 259 0 0 1-2.8 7.902.527.527 0 0 0 .989.368c.663-1.779 1.31-3.58 1.937-5.38a770 770 0 0 0 16.709 0c1.113 3.2 2.295 6.399 3.527 9.538a2.28 2.28 0 0 0 1.57 1.375 4.76 4.76 0 0 1-4.306 2.786m6.15-4.184a4.7 4.7 0 0 1-1.045.38 1.21 1.21 0 0 1-1.387-.742 259 259 0 0 1-4.383-12.044c-.19-.567.06-1.195.584-1.46a4.7 4.7 0 0 1 1.045-.38q.132-.03.263-.03c.483 0 .939.3 1.124.773a259 259 0 0 1 4.383 12.043c.191.568-.06 1.196-.584 1.46m-1.179-9.6.708-.012h.031c-.028.497-.064 1.077-.11 1.719q-.312-.854-.629-1.706m2.722-2.747a2.106 2.106 0 0 1-2.016 1.68h-.017q-.54.011-1.081.02-.614-1.63-1.247-3.241c-.408-1.043-1.53-1.638-2.608-1.385-.444.104-.874.26-1.28.466-.989.5-1.465 1.676-1.109 2.737q.253.751.51 1.504a773 773 0 0 1-15.981 0q.259-.753.51-1.503c.357-1.061-.12-2.238-1.107-2.737a5.7 5.7 0 0 0-1.28-.467c-1.079-.252-2.2.343-2.61 1.385a259 259 0 0 0-1.245 3.241l-1.083-.019H3.18a2.105 2.105 0 0 1-2.017-1.682 5.3 5.3 0 0 1 0-2.116 2.11 2.11 0 0 1 2.016-1.681 776 776 0 0 1 29.644 0 2.11 2.11 0 0 1 2.016 1.681 5.3 5.3 0 0 1 0 2.117"/><path fill="#3BB77E" d="M11.029 23.837h-.036a2.22 2.22 0 0 0-2.219 2.17 72 72 0 0 0 0 4.31 2.22 2.22 0 0 0 2.22 2.17h.035a2.22 2.22 0 0 0 2.219-2.17c.042-1.43.042-2.88 0-4.31a2.22 2.22 0 0 0-2.22-2.17m1.164 6.448a1.185 1.185 0 0 1-1.166 1.147h-.031a1.186 1.186 0 0 1-1.167-1.147 71 71 0 0 1 0-4.247 1.186 1.186 0 0 1 1.167-1.147h.03a1.186 1.186 0 0 1 1.167 1.148 71 71 0 0 1 0 4.246M18.017 23.837h-.036a2.22 2.22 0 0 0-2.218 2.17 72 72 0 0 0 0 4.31 2.22 2.22 0 0 0 2.219 2.17h.035a2.22 2.22 0 0 0 2.219-2.17c.043-1.43.043-2.88 0-4.31a2.22 2.22 0 0 0-2.22-2.17m1.164 6.448a1.185 1.185 0 0 1-1.166 1.147h-.031a1.186 1.186 0 0 1-1.167-1.147 71 71 0 0 1 0-4.247 1.186 1.186 0 0 1 1.167-1.147h.03a1.186 1.186 0 0 1 1.167 1.148 71 71 0 0 1 0 4.246M25.005 23.837h-.035a2.22 2.22 0 0 0-2.22 2.17 72 72 0 0 0 0 4.31 2.22 2.22 0 0 0 2.22 2.17h.035a2.22 2.22 0 0 0 2.219-2.17c.043-1.43.043-2.88 0-4.31a2.22 2.22 0 0 0-2.219-2.17m1.165 6.448a1.185 1.185 0 0 1-1.167 1.147h-.03a1.186 1.186 0 0 1-1.168-1.147 71 71 0 0 1 0-4.247 1.186 1.186 0 0 1 1.168-1.147h.03a1.186 1.186 0 0 1 1.167 1.148 71 71 0 0 1 0 4.246"/></g></g></g><defs><clipPath id="a"><path fill="#fff" d="M0 .84h36v36H0z"/></clipPath><clipPath id="b"><path fill="#fff" d="M0 .84h36v36H0z"/></clipPath><clipPath id="c"><path fill="#fff" d="M0 .84h36v36H0z"/></clipPath></defs></svg>