<svg xmlns="http://www.w3.org/2000/svg" width="17" height="17" fill="none"><path fill="#fff" d="M7.798 8.213H.438V2.88q0-.8.586-1.387a1.96 1.96 0 0 1 1.44-.587h5.334zM1.77 6.88h4.693V2.24h-4q-.32 0-.506.186a.62.62 0 0 0-.187.454zm14.667 1.333H9.13V.906h5.333q.8 0 1.387.587.585.587.586 1.44zM10.464 6.88h4.64v-4a.62.62 0 0 0-.186-.454.62.62 0 0 0-.454-.186h-4zM7.798 16.907H2.464a1.96 1.96 0 0 1-1.44-.587 1.9 1.9 0 0 1-.586-1.387V9.546h7.36zM1.77 10.88v4q0 .32.187.506.186.187.506.187h4V10.88zm12.693 6.027H9.131v-7.36h7.307v5.333q0 .854-.587 1.44a1.96 1.96 0 0 1-1.44.587zm-4-1.334h4a.62.62 0 0 0 .454-.187q.186-.186.186-.506v-4h-4.64z"/></svg>