<svg xmlns="http://www.w3.org/2000/svg" width="31" height="31" fill="none"><g clip-path="url(#a)"><path fill="#FDC040" d="m4.188 11.832-.375-2.063V7.894c.062-.438.224-1.313.374-1.313s1.125-.375 1.875-.562l1.5-.188c.375 0 .563 0 2.438-.375.147-.029 1.125-.187 1.5-.187l-.562-.75.75.75.75.75.187.562c-.25.063-.825.188-1.125.188H10l-.75.375v.562c0 .15-.125 1.438-.187 2.063l-.188 1.875-.75.188H4.188M18.063 6.769l.75-.938 2.437-1.687 2.813-1.125c.875-.25 2.85-.638 3.75-.188 1.125.563 1.312.75 2.25 2.438-.063 1.312-.3 4.05-.75 4.5l-.938 1.688-.562.374h-8.25V10.52c0-.187-.188-1.5-.188-1.688V7.706l-.187-.75-.375-.187z"/><path fill="#3BB77E" d="M21.977 5.439c-.261.26-.405.607-.405.976 0 .37.144.716.405.977l3.192 3.193c.261.26.608.404.977.404s.716-.144.977-.404c.26-.261.404-.608.404-.977s-.143-.716-.404-.977L23.93 5.44a1.383 1.383 0 0 0-1.953 0M26.5 9.253a.5.5 0 0 1 0 .71.5.5 0 0 1-.71 0L22.598 6.77a.5.5 0 0 1 0-.71.5.5 0 0 1 .71 0z"/><path fill="#3BB77E" d="M30.33 13.53a2.65 2.65 0 0 0-1.677-1.946c2.08-3.468 2.367-6.717.704-8.38-.73-.73-1.786-1.103-3.058-1.08a.44.44 0 0 0 .008.88h.008c1.04-.02 1.856.257 2.42.821.874.874.898 2.2.764 3.16-.19 1.356-.804 2.886-1.777 4.437q-3.804-.072-7.63-.1a45 45 0 0 0-.278-4.51.44.44 0 0 0-.39-.388l-.393-.04c1.855-1.568 3.839-2.674 5.664-3.145a.44.44 0 1 0-.22-.85c-.699.18-1.418.446-2.144.79.142-.615.209-1.351-.06-1.9a1.2 1.2 0 0 0-.779-.654c-.513-.142-1.31-.067-2.195 1.096l-.124.17-.015-.05c-.174-.58-.629-1.55-1.722-1.55-.38 0-.71.15-.957.437-.322.373-.463.954-.513 1.532-.385-.506-.85-.912-1.355-.912-.327 0-.626.167-.84.47-.566.797-.574 2.526-.049 4.337l-.394.008c-.861-1.005-1.902-1.696-2.357-1.973v-.963a.44.44 0 0 0 .363-.433v-1.24c0-.67-.544-1.213-1.213-1.213H7.388c-.668 0-1.212.544-1.212 1.212v1.241a.44.44 0 0 0 .363.433v.963c-.594.36-2.179 1.422-3.066 2.964-.18.314-.265.675-.242 1.045.043.676.148 1.989.378 3.215l-.54.01a2.644 2.644 0 0 0-2.525 2.105 5.3 5.3 0 0 0 0 2.113c.178.88.801 1.605 1.624 1.926.048.894.13 2.167.266 3.612a214 214 0 0 0-1.062 3.082c-.297.883.1 1.864.924 2.28.313.159.643.282.98.367a4.8 4.8 0 0 0 1.64 2.241 4.77 4.77 0 0 0 2.9.973h15.243a4.77 4.77 0 0 0 2.9-.973 4.8 4.8 0 0 0 1.64-2.241q.512-.13.98-.367a1.89 1.89 0 0 0 .924-2.281q-.518-1.54-1.062-3.08c.135-1.447.218-2.719.266-3.613a2.64 2.64 0 0 0 1.624-1.926 5.3 5.3 0 0 0 0-2.113M18.98 7.261c.14 1.349.219 2.71.234 4.055a651 651 0 0 0-9.781.017c.015-1.351.093-2.717.234-4.073a47 47 0 0 1 9.313 0m-4.491-4.936c.032-.045.08-.1.123-.1.317 0 .98.903 1.452 1.976a.44.44 0 0 0 .839-.247c-.22-1.485.024-2.4.243-2.654a.35.35 0 0 1 .291-.132c1.013 0 1.047 2.016 1.047 2.036a.44.44 0 0 0 .842.177c.314-.71 1.199-2.113 1.933-1.91a.33.33 0 0 1 .223.194c.187.38.087 1.223-.24 2.084a19.5 19.5 0 0 0-3.421 2.53 48 48 0 0 0-3.18-.127c-.612-1.92-.469-3.381-.152-3.827m-4.396 1.677H7.418v-.77h2.674zM7.388 1.219h2.733c.184 0 .334.15.334.334v.801h-3.4v-.8c0-.185.15-.335.333-.335M4.476 11.266c-.223-1.183-.326-2.464-.368-3.121a1 1 0 0 1 .127-.552c.838-1.457 2.458-2.474 2.86-2.712h3.319c.257.152 1.01.62 1.74 1.32q-1.47.066-2.934.223a.44.44 0 0 0-.39.388 45 45 0 0 0-.277 4.53q-2.025.022-4.042.056a1 1 0 0 1-.035-.132m-1.418 6.48.011.001h.014l.591.011q-.264.711-.523 1.422a91 91 0 0 1-.093-1.433M23.06 29.245H7.816a3.96 3.96 0 0 1-3.588-2.321 1.9 1.9 0 0 0 1.308-1.146c.253-.646.483-1.24.704-1.818a.44.44 0 0 0-.822-.313c-.219.575-.448 1.167-.7 1.81-.182.465-.679.73-1.156.619-.3-.07-.593-.177-.87-.317a1.01 1.01 0 0 1-.487-1.217 216 216 0 0 1 3.653-10.036c.182-.464.679-.73 1.155-.62.303.072.596.178.87.318.437.22.647.744.488 1.217a216 216 0 0 1-2.333 6.585.44.44 0 0 0 .823.307 217 217 0 0 0 1.615-4.484 642 642 0 0 0 13.924 0 217 217 0 0 0 2.939 7.949 1.9 1.9 0 0 0 1.308 1.145 3.96 3.96 0 0 1-3.588 2.322m5.124-3.486c-.276.14-.57.246-.87.317a1.01 1.01 0 0 1-1.156-.62 216 216 0 0 1-3.653-10.036c-.159-.473.05-.996.487-1.216.276-.14.57-.247.87-.317a1 1 0 0 1 .22-.026c.402 0 .782.251.936.645A216 216 0 0 1 28.67 24.54c.16.473-.05.996-.487 1.217m-.982-8 .59-.01h.016l.01-.001c-.024.415-.054.898-.093 1.433q-.258-.712-.523-1.422m2.268-2.29a1.755 1.755 0 0 1-1.68 1.4h-.014q-.45.01-.901.017-.511-1.358-1.039-2.702a1.89 1.89 0 0 0-2.174-1.153c-.369.086-.728.217-1.066.388a1.89 1.89 0 0 0-.924 2.281q.21.627.425 1.253c-4.422.046-8.895.046-13.318 0q.216-.627.426-1.252a1.89 1.89 0 0 0-.924-2.281 4.8 4.8 0 0 0-1.067-.389 1.89 1.89 0 0 0-2.174 1.154q-.526 1.345-1.038 2.7L3.1 16.87h-.012a1.754 1.754 0 0 1-1.681-1.401 4.4 4.4 0 0 1 0-1.764 1.76 1.76 0 0 1 1.68-1.401 647 647 0 0 1 24.703 0 1.76 1.76 0 0 1 1.68 1.401 4.4 4.4 0 0 1 0 1.764"/><path fill="#3BB77E" d="M9.628 19.37h-.03A1.85 1.85 0 0 0 7.75 21.18a60 60 0 0 0 0 3.591A1.85 1.85 0 0 0 9.6 26.58h.03a1.85 1.85 0 0 0 1.848-1.809c.036-1.191.036-2.4 0-3.591a1.85 1.85 0 0 0-1.849-1.809m.97 5.374a.99.99 0 0 1-.972.956h-.025a.99.99 0 0 1-.973-.956 59 59 0 0 1 0-3.539.99.99 0 0 1 .973-.956h.025c.52.002.957.43.973.956a59 59 0 0 1 0 3.539M15.452 19.37h-.03a1.85 1.85 0 0 0-1.848 1.809 60 60 0 0 0 0 3.591 1.85 1.85 0 0 0 1.849 1.809h.03A1.85 1.85 0 0 0 17.3 24.77c.036-1.191.036-2.4 0-3.591a1.85 1.85 0 0 0-1.849-1.809m.97 5.374a.99.99 0 0 1-.971.956h-.026a.99.99 0 0 1-.973-.956 59 59 0 0 1 0-3.539.99.99 0 0 1 .973-.956h.025c.52.002.957.43.973.956a59 59 0 0 1 0 3.539M21.276 19.37h-.03a1.85 1.85 0 0 0-1.848 1.809 60 60 0 0 0 0 3.591 1.85 1.85 0 0 0 1.85 1.809h.028a1.85 1.85 0 0 0 1.85-1.809c.035-1.191.035-2.4 0-3.591a1.85 1.85 0 0 0-1.85-1.809m.97 5.374a.99.99 0 0 1-.971.956h-.026a.99.99 0 0 1-.973-.956 59 59 0 0 1 0-3.539.99.99 0 0 1 .973-.956h.025c.52.002.957.43.973.956a59 59 0 0 1 0 3.539"/></g><defs><clipPath id="a"><path fill="#fff" d="M.438.206h30v30h-30z"/></clipPath></defs></svg>