<svg xmlns="http://www.w3.org/2000/svg" width="31" height="31" fill="none"><g clip-path="url(#a)"><g clip-path="url(#b)"><g clip-path="url(#c)"><mask id="d" width="31" height="31" x="0" y="0" maskUnits="userSpaceOnUse" style="mask-type:luminance"><path fill="#fff" d="M30.438.206h-30v30h30z"/></mask><g mask="url(#d)"><path fill="#FDC040" d="M8.875 21.582c-.9-.15-1.375.187-1.5.374l-.187.188c-.188.25-.563.788-.563.938v1.124c0 .188 0 .75.188 1.125.187.375.187.563.375.75.187.188.375.375.562.375s1.125.188 1.313.188h2.062c.563 0 .75-.187 1.125-.187s.75-.188.75-.376c0-.187.188-.375.375-.562.188-.187 0-.562.188-.872.187-.309 0-.44 0-.628v-.937c0-.188-.188-.376-.188-.563s-.375-.375-.562-.562c-.15-.15-.563-.313-.75-.376-.688.063-2.288.15-3.188 0M25.563 11.832c-2.7 1.05-7.875.437-10.125 0l-.563.374-.937 1.5-.563 1.313c.6.15 2.375 1.687 3.188 2.437l.562 1.125c1.35.15 1.688 1.313 1.688 1.875L19 24.394c2.55.75 8.438-.437 11.063-1.125.15-.3-.438-3.5-.75-5.062-.75-2.25-2.813-5.188-3.75-6.376"/><path fill="#3BB77E" d="M28.223 14.8c-.895-1.636-1.785-2.694-2.106-3.052V9.332l4.16-3.416a.44.44 0 0 0 .014-.667l-3.147-2.821a.44.44 0 0 0-.587.654l2.767 2.48-3.207 2.633V6.398a.44.44 0 1 0-.879 0v5.15a29.5 29.5 0 0 1-9.452 0v-5.15a.44.44 0 1 0-.879 0v1.797l-3.206-2.633 3.42-3.067a2.26 2.26 0 0 1 1.78-.564c.128.553.424 1.713.878 2.87.747 1.9 1.617 3.035 2.588 3.375a.44.44 0 0 0 .29 0c.97-.34 1.842-1.476 2.588-3.375a22 22 0 0 0 .878-2.866 2.26 2.26 0 0 1 1.16.164.44.44 0 0 0 .345-.808 3.15 3.15 0 0 0-3.353.566l-.406.369a2.006 2.006 0 0 1-2.714 0l-.405-.37a3.135 3.135 0 0 0-4.215-.015l-3.802 3.408a.44.44 0 0 0 .014.667l4.16 3.416v2.416c-.288.32-1.028 1.196-1.818 2.539A84 84 0 0 0 11 13.223c-.626-.311-1.257-.625-1.862-.943.592-.74 1.048-1.578 1.248-2.56.305-1.502-.142-2.843-1.226-3.68-1.028-.794-2.444-.97-3.523-.44-.578.284-1.549 1.021-1.549 2.768 0 1.105.702 2.15 2.147 3.195.452.326.96.643 1.5.952-.67.659-1.44 1.246-2.166 1.8-1.564 1.193-3.049 2.326-3.087 3.853A2.4 2.4 0 0 0 .657 20.2a27.3 27.3 0 0 0 0 6.898 2.406 2.406 0 0 0 2.263 2.097 135 135 0 0 0 14.069 0A2.405 2.405 0 0 0 19.25 27.1q.132-1.026.184-2.06.538.017 1.077.017c5.737 0 9.48-1.343 9.637-1.4a.44.44 0 0 0 .289-.412c0-3.634-1.204-6.597-2.215-8.443m-9.66-11.925a2.88 2.88 0 0 0 3.898 0l.406-.369q.123-.113.26-.204c-.153.583-.387 1.381-.7 2.177-.732 1.864-1.424 2.563-1.915 2.806-.49-.243-1.182-.942-1.915-2.806a20 20 0 0 1-.7-2.177q.137.09.261.204zM4.968 8.368c0-.955.365-1.64 1.057-1.98.29-.142.62-.21.96-.21a2.72 2.72 0 0 1 1.638.557c.476.367 1.225 1.22.902 2.809-.178.87-.61 1.629-1.177 2.308-1.899-1.065-3.38-2.195-3.38-3.484M2.966 18.982c.783-.041 1.567-.075 2.33-.101a.44.44 0 1 0-.031-.879c-.622.022-1.258.048-1.896.08.113-1.07 1.337-2.005 2.732-3.068.82-.625 1.69-1.289 2.437-2.057.673.359 1.377.708 2.07 1.053s1.391.692 2.054 1.046c-.435.827-.864 1.79-1.218 2.874-1.478-.016-2.954-.01-4.42.022a.44.44 0 1 0 .02.879c3.276-.072 6.607-.021 9.9.15.738.039 1.343.598 1.436 1.33q.093.724.144 1.452c-.036.486-.084.969-.144 1.436a1.526 1.526 0 0 1-1.438 1.33c-.995.051-1.994.092-2.98.121a16 16 0 0 0-.042-1.86 1.68 1.68 0 0 0-1.575-1.544 39 39 0 0 0-4.286 0c-.83.045-1.507.709-1.575 1.544-.05.621-.063 1.25-.042 1.875-1.157-.031-2.324-.076-3.476-.137a1.525 1.525 0 0 1-1.437-1.33 28 28 0 0 1-.144-1.43q.052-.73.144-1.456a1.526 1.526 0 0 1 1.437-1.33m10.47-3.5c1.423.815 2.573 1.667 2.96 2.594a136 136 0 0 0-4.03-.133c.318-.917.69-1.742 1.07-2.46m-.392 9.849a.8.8 0 0 1-.747.736c-1.39.076-2.8.076-4.19 0a.8.8 0 0 1-.747-.736 15.4 15.4 0 0 1 0-2.47.8.8 0 0 1 .747-.738 38 38 0 0 1 4.19 0 .8.8 0 0 1 .747.737c.066.82.066 1.651 0 2.47m3.899 2.987c-4.637.242-9.34.242-13.977 0a1.53 1.53 0 0 1-1.437-1.33 26 26 0 0 1-.19-2.286c.409.41.965.672 1.581.704 1.188.062 2.39.109 3.582.14a1.68 1.68 0 0 0 1.557 1.4 39 39 0 0 0 4.286 0 1.68 1.68 0 0 0 1.559-1.415c1.02-.03 2.054-.071 3.084-.125a2.4 2.4 0 0 0 1.582-.704q-.045 1.146-.19 2.286a1.53 1.53 0 0 1-1.437 1.33m11.173-4.998a34 34 0 0 0-.498-3.92.44.44 0 1 0-.864.162c.243 1.292.408 2.62.494 3.95q-.509.106-1.147.212a34 34 0 0 0-.563-5.238.44.44 0 0 0-.864.162c.32 1.7.504 3.45.552 5.208a35 35 0 0 1-5.76.305 27 27 0 0 0-.214-3.96 2.4 2.4 0 0 0-1.909-2.052c-.323-1.343-1.701-2.422-3.478-3.436a16 16 0 0 1 1.646-2.32 30.4 30.4 0 0 0 10.002 0c.33.378 1.146 1.375 1.953 2.856.925 1.697 2.023 4.388 2.09 7.678-.286.09-.777.235-1.44.393"/><path fill="#3BB77E" d="M11.966 22.79a38 38 0 0 0-3.527 0 .44.44 0 0 0-.418.412 15 15 0 0 0 0 1.787.44.44 0 0 0 .418.412 38 38 0 0 0 3.527 0 .44.44 0 0 0 .419-.412c.036-.593.036-1.194 0-1.787a.44.44 0 0 0-.419-.412m-.44 1.75c-.884.031-1.763.031-2.646 0q-.015-.445 0-.889a37 37 0 0 1 2.646 0q.014.445 0 .889"/></g></g></g></g><defs><clipPath id="a"><path fill="#fff" d="M.438.206h30v30h-30z"/></clipPath><clipPath id="b"><path fill="#fff" d="M.438.206h30v30h-30z"/></clipPath><clipPath id="c"><path fill="#fff" d="M.438.206h30v30h-30z"/></clipPath></defs></svg>