<svg xmlns="http://www.w3.org/2000/svg" width="31" height="31" fill="none"><g clip-path="url(#a)"><g clip-path="url(#b)"><g clip-path="url(#c)"><path fill="#FDC040" d="M11.313 20.082c3.935 0 7.124-3.023 7.124-6.75 0-3.728-3.19-6.75-7.125-6.75s-7.124 3.022-7.124 6.75c0 3.727 3.19 6.75 7.125 6.75"/><path fill="#3BB77E" d="M11.397 20.64c4.285 0 7.77-3.224 7.77-7.187s-3.485-7.188-7.77-7.188c-4.284 0-7.77 3.225-7.77 7.188s3.486 7.188 7.77 7.188m0-13.495c3.8 0 6.891 2.83 6.891 6.308s-3.091 6.308-6.89 6.308c-3.8 0-6.891-2.83-6.891-6.308s3.09-6.308 6.89-6.308"/><path fill="#3BB77E" d="M13.777 12.338c0 .714.582 1.296 1.296 1.296s1.296-.582 1.296-1.296-.581-1.296-1.296-1.296c-.714 0-1.296.581-1.296 1.296m1.296-.416a.417.417 0 1 1 0 .833.417.417 0 0 1 0-.834M12.974 11.487c.714 0 1.296-.581 1.296-1.296 0-.714-.582-1.295-1.296-1.295s-1.296.58-1.296 1.295.581 1.296 1.296 1.296m0-1.712a.417.417 0 1 1-.001.834.417.417 0 0 1 0-.834M7.722 13.634c.714 0 1.296-.582 1.296-1.296s-.582-1.296-1.296-1.296-1.296.581-1.296 1.296c0 .714.581 1.296 1.296 1.296m0-1.713a.417.417 0 1 1-.001.834.417.417 0 0 1 0-.834M9.82 11.487c.714 0 1.295-.581 1.295-1.296 0-.714-.581-1.295-1.296-1.295-.714 0-1.296.58-1.296 1.295s.582 1.296 1.296 1.296m0-1.712a.417.417 0 1 1-.002.834.417.417 0 0 1 .001-.834M9.175 13.245c-.061.287-.225.55-.473.76a2.272 2.272 0 0 0 2.422 3.795.66.66 0 0 1 .545 0 2.3 2.3 0 0 0 1.089.206 2.272 2.272 0 0 0 1.332-4 1.38 1.38 0 0 1-.472-.761c-.106-.5-.37-.938-.765-1.269a2.29 2.29 0 0 0-2.914 0c-.394.331-.658.77-.764 1.269m1.33-.595a1.4 1.4 0 0 1 1.782 0c.243.203.405.472.47.778.102.48.366.911.764 1.249a1.39 1.39 0 0 1-1.483 2.326 1.53 1.53 0 0 0-1.284 0 1.39 1.39 0 0 1-1.483-2.326c.398-.337.662-.77.764-1.25.065-.305.228-.574.47-.777"/><path fill="#3BB77E" d="M28.705 23.757a6.8 6.8 0 0 0 1.449-4.195 6.817 6.817 0 0 0-8.855-6.495c-.048-2.175-.16-4.347-.34-6.507a3.65 3.65 0 0 1 .485-2.165c.517-.883.98-2.088.25-2.82-.314-.313-1.118-.767-4.464-1.093a65 65 0 0 0-5.832-.275c-1.45 0-3.744.072-5.833.275-3.346.326-4.15.78-4.463 1.093-.732.732-.268 1.937.25 2.82.38.65.547 1.398.483 2.165-.025.297-.05.612-.077.994a.44.44 0 1 0 .878.064c.027-.378.051-.691.076-.985A4.53 4.53 0 0 0 2.11 3.95l-.069-.121c1.332-.561 5.68-.927 9.357-.927 1.399 0 3.619.07 5.654.263 2.247.213 3.252.48 3.7.666q-.031.06-.067.119a4.53 4.53 0 0 0-.602 2.683c.456 5.51.48 11.096.074 16.61q-1.417 0-2.827.023a2.917 2.917 0 0 0-2.904-2.677 2.917 2.917 0 0 0-2.913 2.913c0 .702.251 1.371.701 1.896a3 3 0 0 0-.3.419c-2.63.02-5.296-.11-7.926-.383a1.44 1.44 0 0 1-1.284-1.317A107 107 0 0 1 2.522 9.36a.44.44 0 0 0-.879-.05c-.282 4.938-.22 9.944.185 14.878a2.32 2.32 0 0 0 2.07 2.12c2.487.26 5.007.39 7.5.39h.177a2.916 2.916 0 0 0 2.851 3.509 2.917 2.917 0 0 0 2.904-2.678c1.85.03 3.72.03 5.569 0a2.917 2.917 0 0 0 4.253 2.347.44.44 0 1 0-.408-.78 2.036 2.036 0 0 1-2.967-1.978.44.44 0 0 0-.446-.476c-2.134.04-4.299.04-6.433 0a.44.44 0 0 0-.447.477q.009.099.009.174a2.036 2.036 0 0 1-2.034 2.034 2.036 2.036 0 0 1-2.033-2.034c0-.602.265-1.17.728-1.558a.44.44 0 0 0 0-.674 2.03 2.03 0 0 1-.728-1.559c0-1.121.912-2.033 2.033-2.033a2.036 2.036 0 0 1 2.025 2.208.44.44 0 0 0 .447.477c2.134-.041 4.299-.041 6.433 0a.44.44 0 0 0 .447-.477 2.036 2.036 0 0 1 2.025-2.208c1.121 0 2.034.912 2.034 2.033a2.03 2.03 0 0 1-.729 1.559.44.44 0 0 0 0 .674 2.03 2.03 0 0 1 .588 2.302.44.44 0 0 0 .82.322q.2-.512.2-1.066c0-.702-.25-1.37-.701-1.895.395-.46.637-1.033.69-1.641M11.398 2.022c-.08 0-7.34.013-9.712 1.01-.122-.39-.113-.684.038-.835.119-.118.754-.53 3.926-.84 2.058-.2 4.318-.27 5.748-.27 1.429 0 3.69.07 5.747.27 3.172.31 3.807.722 3.926.84.15.151.16.445.038.836-2.372-.998-9.632-1.01-9.711-1.01M25.803 20.59a2.917 2.917 0 0 0-2.904 2.677q-.928-.014-1.86-.019c.224-3.072.317-6.166.276-9.257a5.936 5.936 0 0 1 7.96 5.572 5.94 5.94 0 0 1-.755 2.891 2.92 2.92 0 0 0-2.717-1.864"/></g></g></g><defs><clipPath id="a"><path fill="#fff" d="M.438.207h30v30h-30z"/></clipPath><clipPath id="b"><path fill="#fff" d="M.438.207h30v30h-30z"/></clipPath><clipPath id="c"><path fill="#fff" d="M.438.207h30v30h-30z"/></clipPath></defs></svg>