<svg xmlns="http://www.w3.org/2000/svg" width="31" height="31" fill="none"><g clip-path="url(#a)"><g clip-path="url(#b)"><g clip-path="url(#c)"><path fill="#FDC040" d="M22.563 20.457h-6.75a2.25 2.25 0 0 0-2.25 2.25v4.5a2.25 2.25 0 0 0 2.25 2.25h6.75a2.25 2.25 0 0 0 2.25-2.25v-4.5a2.25 2.25 0 0 0-2.25-2.25M2.688 3.019l.374.938 1.126-.375 2.25-.188L10 3.207l3.75.187 6.375.563.563-.563.375-.937c.062-.25.187-.788.187-.938s-.5-.187-.75-.187l-.562.187-.563.188H18.25c-.187-.188-.6-.563-.75-.563s-.437-.25-.562-.375H16l-.562.563-.75.375h-.75L13 1.144l-.937-.562-.938.187-.562.563-.938.375-.937-.188c-.188-.062-.6-.187-.75-.187S7.625.957 7.563.769H7l-.75.188c-.125.125-.412.375-.562.375-.188 0-.563.187-.563.375 0 .187-.562 0-.75 0s-.375 0-.562-.188c-.15-.15-.438-.187-.563-.187H2.5l-.187.75z"/><path fill="#3BB77E" d="M11.74 19.469c1.988 0 3.862-.581 5.277-1.636 1.453-1.084 2.253-2.537 2.253-4.092s-.8-3.008-2.253-4.092c-1.415-1.056-3.29-1.637-5.277-1.637-1.989 0-3.863.581-5.277 1.637-1.454 1.084-2.254 2.537-2.254 4.092s.8 3.008 2.254 4.092c1.414 1.055 3.288 1.636 5.277 1.636m-6.652-5.728c0-2.674 2.984-4.85 6.652-4.85 3.667 0 6.651 2.176 6.651 4.85s-2.984 4.85-6.651 4.85c-3.668 0-6.652-2.176-6.652-4.85"/><path fill="#3BB77E" d="M28.258 25.971c.366-.284.565-.634.565-1.017 0-.384-.2-.734-.565-1.018q.481-.335.65-.768c.097-.253.159-.659-.099-1.162-.2-.393-.517-.647-.918-.736-.64-.143-1.49.145-2.528.858a3.61 3.61 0 0 0-3.237-2.36 67 67 0 0 0-.944-.035 104 104 0 0 0-.286-15.764c.162-.261.473-.84.668-1.704a1.19 1.19 0 0 0-.563-1.302 1.17 1.17 0 0 0-1.39.133c-.197.174-.383.283-.701.283-.419 0-.605-.184-.888-.46-.323-.318-.726-.712-1.503-.712s-1.18.394-1.503.711c-.283.277-.47.46-.887.46s-.605-.183-.888-.46c-.323-.317-.726-.711-1.503-.711s-1.18.394-1.502.711c-.283.277-.47.46-.888.46s-.605-.183-.887-.46C8.137.601 7.735.207 6.958.207S5.778.6 5.455.918c-.282.277-.469.46-.887.46-.318 0-.504-.108-.7-.283a1.17 1.17 0 0 0-1.39-.133c-.46.272-.682.783-.564 1.303.195.863.506 1.443.668 1.704-.076.806-.144 1.628-.202 2.448a.44.44 0 1 0 .877.062c.054-.764.116-1.529.186-2.28a69.5 69.5 0 0 1 16.592 0c.479 5.15.568 10.365.268 15.513a66 66 0 0 0-4.164.056 3.61 3.61 0 0 0-3.237 2.36c-1.038-.713-1.887-1.002-2.528-.858-.4.089-.718.343-.918.736-.258.503-.195.91-.098 1.161q.123.32.418.586a70 70 0 0 1-6.333-.47c-.464-5-.563-10.065-.294-15.057a.44.44 0 1 0-.878-.048c-.275 5.101-.168 10.276.316 15.383-.16.258-.476.84-.673 1.712-.118.52.104 1.031.563 1.303.453.267.999.215 1.39-.133.197-.175.383-.283.701-.283.418 0 .605.183.888.46.323.317.726.712 1.503.712s1.18-.395 1.503-.712c.282-.277.47-.46.887-.46.142 0 .257.021.358.06q-.24.24-.35.52c-.097.252-.159.658.098 1.162.2.392.518.646.919.736q.159.036.336.035c.592 0 1.326-.3 2.192-.894a3.61 3.61 0 0 0 3.237 2.36 66 66 0 0 0 5.987 0 3.61 3.61 0 0 0 3.237-2.36c.865.594 1.6.894 2.191.894q.177 0 .337-.035c.4-.09.718-.344.918-.736.258-.504.195-.91.098-1.162q-.168-.436-.65-.769M3.233 3.34a5 5 0 0 1-.462-1.268.316.316 0 0 1 .153-.352c.058-.034.21-.1.36.034.264.235.65.504 1.284.504.777 0 1.18-.394 1.503-.711.282-.277.469-.46.887-.46s.605.183.887.46c.324.317.726.711 1.503.711s1.18-.394 1.503-.711c.283-.277.47-.46.887-.46s.605.183.888.46c.323.317.726.711 1.503.711s1.18-.394 1.503-.711c.282-.277.469-.46.887-.46s.605.183.888.46c.323.317.725.711 1.503.711.634 0 1.02-.27 1.284-.504a.29.29 0 0 1 .36-.034.316.316 0 0 1 .153.352 5 5 0 0 1-.462 1.268 70.3 70.3 0 0 0-17.012 0M21.601 29.28q-.889.033-1.78.044a27.8 27.8 0 0 1 1.453-5.793.44.44 0 0 0-.825-.302 28.6 28.6 0 0 0-1.516 6.098 66 66 0 0 1-1.77-.03c.596-4.332 2.185-7.661 2.733-8.713q.83.01 1.656.041c-.127.26-.276.578-.439.948a.44.44 0 1 0 .806.353c.231-.529.435-.946.58-1.23.521.102.987.35 1.355.698-.698 1.563-1.79 4.427-2.253 7.886M7.847 25.992c-.283.277-.47.46-.888.46s-.605-.182-.888-.46c-.323-.317-.726-.711-1.503-.711-.634 0-1.02.27-1.284.505a.29.29 0 0 1-.36.033.316.316 0 0 1-.152-.352 5 5 0 0 1 .491-1.322c2.07.252 4.16.413 6.23.48a1.1 1.1 0 0 0 .002.661 2 2 0 0 0-.145-.005c-.778 0-1.18.394-1.503.711m2.718 1.788c-.097-.022-.222-.073-.327-.278-.118-.232-.091-.366-.06-.446.09-.236.423-.472.934-.666a.44.44 0 0 0-.008-.825c-.538-.191-.783-.45-.783-.611s.245-.42.783-.611a.44.44 0 0 0 .008-.826c-.511-.193-.843-.43-.934-.666-.031-.08-.058-.213.06-.445.105-.206.23-.257.327-.279.207-.046.819-.04 2.13.932q-.007.066-.01.133a34 34 0 0 0 0 3.523q.003.068.01.133c-1.311.972-1.922.978-2.13.932m2.997-4.542a2.73 2.73 0 0 1 2.617-2.592l.043-.001a29.5 29.5 0 0 0-2.36 7.137 2.7 2.7 0 0 1-.3-1.113 33 33 0 0 1 0-3.431m1.034 5.435c.652-4.005 2.12-7.085 2.627-8.065a65 65 0 0 1 1.69-.027 29.1 29.1 0 0 0-2.632 8.684l-.102-.004a2.74 2.74 0 0 1-1.583-.588m10.107-2.004a2.73 2.73 0 0 1-2.205 2.542c.416-2.949 1.297-5.437 1.953-6.987.145.31.233.652.252 1.014a33 33 0 0 1 0 3.431m3.324.833c-.105.205-.23.256-.327.278-.207.046-.818.04-2.13-.932q.008-.066.011-.132c.062-1.17.062-2.355 0-3.524q-.004-.067-.01-.133c1.31-.972 1.922-.978 2.129-.932.097.022.222.073.327.279.118.232.091.365.06.445-.09.236-.423.473-.934.666a.44.44 0 0 0 .008.826c.538.19.783.45.783.61 0 .161-.245.42-.783.612a.44.44 0 0 0-.008.825c.511.194.843.43.934.666.031.08.058.213-.06.446"/><path fill="#3BB77E" d="M8.798 12.29c1.951-.259 3.93-.259 5.88 0q.03.004.06.004a.44.44 0 0 0 .057-.875 23.2 23.2 0 0 0-6.113 0 .44.44 0 1 0 .116.871M15.172 15.683a.44.44 0 0 0-.493-.377c-1.951.259-3.93.259-5.88 0a.44.44 0 0 0-.117.87 23.2 23.2 0 0 0 6.112 0 .44.44 0 0 0 .378-.493M16.364 13.798a.44.44 0 0 0-.44-.44h-8.37a.44.44 0 0 0 0 .88h8.37a.44.44 0 0 0 .44-.44"/></g></g></g><defs><clipPath id="a"><path fill="#fff" d="M.438.207h30v30h-30z"/></clipPath><clipPath id="b"><path fill="#fff" d="M.438.207h30v30h-30z"/></clipPath><clipPath id="c"><path fill="#fff" d="M.438.207h30v30h-30z"/></clipPath></defs></svg>