<svg xmlns="http://www.w3.org/2000/svg" width="31" height="31" fill="none"><g clip-path="url(#a)"><g clip-path="url(#b)"><g clip-path="url(#c)"><mask id="d" width="31" height="31" x="0" y="0" maskUnits="userSpaceOnUse" style="mask-type:luminance"><path fill="#fff" d="M30.438.206h-30v30h30z"/></mask><g mask="url(#d)"><path fill="#FDC040" d="M24.625 13.519h-11.25v.75l.188.375.937.938.75.374.375.563-.187.75-1.313.563-.75 1.312-.187 3.938.562 4.312.375 1.313.75.75c.188.062.637.187.938.187.374 0 2.062.188 2.437.188h3.375l-.375-.75c-.125-.313-.375-1.05-.375-1.5s-.125-1.688-.187-2.25v-2.813c0-.3.375-2.5.562-3.562v-.563c0-.187.563-.187.75-.375.188-.187.75-.187.938-.187s.75-.188.937-.188-.187-.187-.375-.375c-.187-.187 0-.187 0-.375 0-.187 0-.562-.187-.75-.15-.15.312-.437.562-.562.188-.063.563-.226.563-.376s.375-.312.562-.374l.375-.563v-.562z"/><path fill="#3BB77E" d="M3.271 23.304c0 .939.765 1.703 1.704 1.703s1.703-.764 1.703-1.703S5.914 21.6 4.975 21.6s-1.704.764-1.704 1.704m2.528 0a.825.825 0 0 1-1.649 0 .825.825 0 0 1 1.65 0M7.14 20.956c.74 0 1.34-.602 1.34-1.341 0-.74-.6-1.341-1.34-1.341s-1.341.601-1.341 1.34.601 1.342 1.34 1.342m0-1.803a.463.463 0 1 1-.001.925.463.463 0 0 1 0-.925M11.817 26.456c0-.74-.602-1.341-1.341-1.341-.74 0-1.341.601-1.341 1.34s.601 1.342 1.34 1.342 1.342-.602 1.342-1.341m-1.803 0a.463.463 0 1 1 .925 0 .463.463 0 0 1-.925 0"/><path fill="#3BB77E" d="M29.5 19.041a1.875 1.875 0 0 0-1.85-1.614h-.312l.3-.78a.44.44 0 0 0-.82-.316l-.421 1.096h-1.83a2 2 0 0 0-.188-.082q-.687-.257-.688-.788c0-.329.556-.595.795-.695a2.27 2.27 0 0 0 1.361-1.676c.295-1.565.429-3.24.483-4.099a2.25 2.25 0 0 0-.292-1.262c-1.148-1.995-3.226-3.354-3.921-3.77V3.65h.023a.44.44 0 0 0 .44-.44V1.63c0-.785-.64-1.424-1.425-1.424h-3.48c-.786 0-1.425.64-1.425 1.425v1.58c0 .243.197.44.44.44h.023v1.405c-.449.268-1.473.93-2.452 1.9v-.308a1.602 1.602 0 0 0-.76-3.009H6.559c-.882 0-1.6.718-1.6 1.6 0 .608.34 1.138.841 1.41v1.344a14.5 14.5 0 0 0-3.675 3.123c-.258.312-.423.69-.476 1.094-.072.543-.18 1.43-.284 2.57a.44.44 0 1 0 .876.081c.103-1.126.208-2.001.279-2.537.023-.174.081-.34.17-.488h9.959c.077.731.185 1.555.335 2.35.141.753.65 1.38 1.361 1.676.24.1.795.366.795.695q-.002.531-.689.788a2.28 2.28 0 0 0-1.473 1.925c-.172 1.99-.3 5.842.783 9.273.091.29.234.55.415.776a4 4 0 0 1-.254.009H6.139a4.09 4.09 0 0 1-4.066-3.772c-.201-2.732-.192-5.744.028-8.954a.44.44 0 0 0-.876-.06C1 19.793.99 22.847 1.195 25.62a4.93 4.93 0 0 0 1.57 3.264 4.95 4.95 0 0 0 3.373 1.322h7.784c.424 0 .845-.053 1.252-.16.27.104.561.16.864.16H27.65c.927 0 1.723-.694 1.85-1.614a35 35 0 0 0 0-9.55m-.594 6.436a2.236 2.236 0 0 1-3.397-1.906 2.236 2.236 0 0 1 3.368-1.924q.122 1.914.029 3.83m-3.454-15.444a38 38 0 0 1-.316 3.076H13.694a38 38 0 0 1-.317-3.076c-.017-.274.044-.54.177-.77q.081-.14.168-.276h11.386q.087.135.168.276c.132.23.193.496.176.77M6.678 6.84h6.704v.97H6.678zM17.13 1.63c0-.3.245-.545.546-.545h3.48c.3 0 .545.245.545.546v1.14h-4.57zm4.11 2.02v1.22h-3.647V3.65zm-3.97 2.1h4.293c.37.216 1.765 1.075 2.88 2.358H14.388c1.116-1.283 2.51-2.142 2.881-2.359M6.558 4.517h6.943a.722.722 0 0 1 0 1.443H6.557a.722.722 0 0 1 .001-1.443m-3.108 6.44a13.8 13.8 0 0 1 2.9-2.268h6.522l-.08.134c-.22.38-.32.816-.293 1.264.015.235.036.531.064.87zm24.199 18.37h-5.166a.99.99 0 0 1-.973-.856c-.07-.504-.128-1.01-.173-1.507a.44.44 0 1 0-.876.08 35 35 0 0 0 .178 1.547c.037.268.13.517.268.735h-4.87a1.5 1.5 0 0 1-1.44-1.049c-1.038-3.286-.912-7.007-.745-8.932.046-.527.401-.99.905-1.177.8-.299 1.26-.886 1.26-1.612 0-.434-.232-1.047-1.336-1.506a1.39 1.39 0 0 1-.835-1.028l-.007-.035h11.15l-.007.035c-.087.462-.4.846-.835 1.028-1.104.459-1.336 1.072-1.336 1.506 0 .321.09.616.26.87h-.582c-.928 0-1.724.694-1.85 1.614a35 35 0 0 0-.296 6.238.44.44 0 0 0 .878-.037 34 34 0 0 1 .289-6.08.99.99 0 0 1 .979-.857h5.16c.49 0 .911.368.979.856q.1.74.17 1.48a3.116 3.116 0 0 0-4.168 2.93 3.116 3.116 0 0 0 4.21 2.913 34 34 0 0 1-.212 1.988.99.99 0 0 1-.98.856"/></g></g></g></g><defs><clipPath id="a"><path fill="#fff" d="M.438.206h30v30h-30z"/></clipPath><clipPath id="b"><path fill="#fff" d="M.438.206h30v30h-30z"/></clipPath><clipPath id="c"><path fill="#fff" d="M.438.206h30v30h-30z"/></clipPath></defs></svg>