<svg width="26" height="24" viewBox="0 0 26 24" fill="none" xmlns="http://www.w3.org/2000/svg">
<path d="M19.8459 7.35077L21.2083 6.55603C18.2606 1.49215 11.907 -0.442356 6.6374 2.11959V0.180847H5.06055V4.91142H9.79111V3.33456H7.77668C12.2371 1.44248 17.4085 3.16337 19.8459 7.35077Z" fill="#253D4E"/>
<path d="M5.45424 19.636C1.79855 16.6671 0.836373 11.4846 3.18278 7.40128L1.81565 6.61285C-0.860622 11.2732 0.152018 17.1777 4.22823 20.68H2.30053V22.2569H7.0311V17.5263H5.45424V19.636Z" fill="#253D4E"/>
<path d="M21.9834 10.0898L18.6389 13.4351L19.7537 14.5499L21.094 13.2097C20.5683 18.0945 16.452 21.8017 11.5391 21.8153V23.3922C17.3926 23.3768 22.2486 18.8593 22.6858 13.022L24.2138 14.5499L25.3287 13.4351L21.9834 10.0898Z" fill="#253D4E"/>
</svg>
