<svg xmlns="http://www.w3.org/2000/svg" width="18" height="21" fill="none"><path fill="#3BB77E" d="M12.524 4.317c-1-.848-2.03-1.727-3.072-2.766l-.594-.59-.584.591c-1.876 1.882-2.763 4.77-3.148 6.504a5 5 0 0 1-.647-1.485l-.353-1.36-1.025.963C1.305 7.859.108 9.532.108 12.21a8.67 8.67 0 0 0 6.486 8.464q.848.205 1.718.25.271.035.546.035c.096 0 .189-.008.282-.014a8.73 8.73 0 0 0 8.468-8.733c0-3.578-2.356-5.578-5.084-7.895m-3.5 14.962c-.083 0-.166.008-.255.007a2.89 2.89 0 0 1-2.803-2.883c0-1.057.567-1.583 1.85-2.675.323-.275.674-.574 1.044-.917.324.294.64.561.93.809 1.289 1.093 1.961 1.714 1.961 2.78a2.89 2.89 0 0 1-2.727 2.879m4.184-1.476-.017.011c.15-.455.226-.932.227-1.411 0-1.888-1.239-2.94-2.549-4.052-.464-.393-.943-.8-1.421-1.278l-.59-.59-.59.59c-.54.539-1.068.989-1.534 1.386C5.428 13.57 4.3 14.53 4.3 16.403c.001.5.086.996.25 1.469a7.1 7.1 0 0 1-2.775-5.662A5.53 5.53 0 0 1 3.35 8.294q.264.537.623 1.015a1.5 1.5 0 0 0 1.547.568 1.55 1.55 0 0 0 1.177-1.192A13.65 13.65 0 0 1 8.91 3.352c.88.833 1.75 1.57 2.536 2.238 2.61 2.217 4.5 3.819 4.5 6.625a7.04 7.04 0 0 1-2.737 5.588"/></svg>