<svg xmlns="http://www.w3.org/2000/svg" width="61" height="61" fill="none"><g clip-path="url(#a)"><g clip-path="url(#b)"><g clip-path="url(#c)"><mask id="d" width="61" height="61" x="0" y="0" maskUnits="userSpaceOnUse" style="mask-type:luminance"><path fill="#fff" d="M60.293.92H.988v59.305h59.305z"/></mask><g mask="url(#d)"><path fill="#3BB77E" d="M44.52 56.866c-.6 0-1.095.457-1.153 1.042h-8.716l-1.376-8.28 1.529-1.529a1.16 1.16 0 0 0 0-1.638l-1.353-1.352h2.311a7.6 7.6 0 0 1 6.313 3.367 1.158 1.158 0 1 0 1.923-1.292 9.91 9.91 0 0 0-8.158-4.39 6.98 6.98 0 0 0 1.807-4.69v-1.7a7.013 7.013 0 0 0-7.005-7.005 7.013 7.013 0 0 0-7.005 7.006v1.698c0 1.803.684 3.448 1.806 4.691-5.431.042-9.838 4.472-9.838 9.914v6.358c0 .64.519 1.159 1.159 1.159H44.52c.64 0 1.158-.519 1.158-1.159v-1.042c0-.64-.519-1.158-1.158-1.158m-13.865-7.894-1.692-1.692 1.692-1.691 1.692 1.691zm-.6 2.627a1.16 1.16 0 0 0 1.2 0l1.047 6.31h-3.294zm-4.102-15.194a4.694 4.694 0 0 1 4.689-4.689 4.694 4.694 0 0 1 4.689 4.689v1.698a4.694 4.694 0 0 1-4.69 4.689 4.694 4.694 0 0 1-4.688-4.689zm-8.03 16.303c0-4.19 3.408-7.6 7.598-7.6h2.338l-1.353 1.353a1.16 1.16 0 0 0 0 1.638l1.529 1.529-1.375 8.28h-8.738z"/><path fill="#FDC040" d="M24.5 2.206c.343 0 8.143.285 12 .428v12.429l-12-.429zM51.93 2.634l-6 11.143h12.857l-6-10.714z"/><path stroke="#000" stroke-linecap="round" stroke-linejoin="round" stroke-width=".857" d="M24.5 2.206c.343 0 8.143.285 12 .428v12.429l-12-.429zM51.93 2.634l-6 11.143h12.857l-6-10.714z"/><path fill="#3BB77E" d="M15.801 8.327c0-4.084-3.322-7.406-7.406-7.406S.988 4.243.988 8.327s3.323 7.407 7.407 7.407S15.8 12.41 15.8 8.327m-12.496 0a5.096 5.096 0 0 1 5.09-5.09 5.096 5.096 0 0 1 5.09 5.09 5.096 5.096 0 0 1-5.09 5.09 5.096 5.096 0 0 1-5.09-5.09M24.393 15.733h12.496c.64 0 1.158-.519 1.158-1.158V2.078c0-.64-.518-1.158-1.158-1.158H24.393c-.64 0-1.159.519-1.159 1.158v12.497c0 .64.519 1.158 1.159 1.158M25.55 3.237h10.18v10.18H25.55zM60.138 13.535 53.454 1.96a1.158 1.158 0 0 0-2.006 0l-6.683 11.576a1.158 1.158 0 0 0 1.003 1.738h13.367a1.158 1.158 0 0 0 1.003-1.738m-12.364-.579 4.677-8.101 4.677 8.101zM30.641 27.126c.64 0 1.159-.52 1.159-1.159v-3.305l.047.066a1.157 1.157 0 0 0 1.616.268c.52-.373.64-1.096.268-1.616l-2.148-3a1.158 1.158 0 0 0-1.883 0l-2.148 3a1.158 1.158 0 1 0 1.884 1.348l.047-.066v3.305c0 .64.519 1.159 1.158 1.159M21.106 36.507c0-.64-.519-1.159-1.158-1.159H9.56V22.662l.047.066a1.157 1.157 0 0 0 1.617.268c.52-.373.64-1.096.267-1.616l-2.147-3a1.158 1.158 0 0 0-1.884 0l-2.147 3a1.158 1.158 0 1 0 1.884 1.348l.047-.066v13.845c0 .64.518 1.158 1.158 1.158h11.545c.64 0 1.158-.519 1.158-1.158M53.82 18.38a1.16 1.16 0 0 0-1.883 0l-2.148 3a1.158 1.158 0 1 0 1.884 1.348l.047-.066v12.686H41.334a1.158 1.158 0 0 0 0 2.317H52.88c.64 0 1.158-.519 1.158-1.158V22.662l.047.066a1.157 1.157 0 0 0 1.616.268c.52-.373.64-1.096.268-1.616zM44.518 53.97a1.158 1.158 0 1 0 0-2.316 1.158 1.158 0 0 0 0 2.316"/></g></g></g></g><defs><clipPath id="a"><path fill="#fff" d="M.5.92h60v60H.5z"/></clipPath><clipPath id="b"><path fill="#fff" d="M.5.92h60v60H.5z"/></clipPath><clipPath id="c"><path fill="#fff" d="M.5.92h60v60H.5z"/></clipPath></defs></svg>