<svg width="60" height="61" viewBox="0 0 60 61" fill="none" xmlns="http://www.w3.org/2000/svg">
<g clip-path="url(#clip0_6582_705)">
<g clip-path="url(#clip1_6582_705)">
<g clip-path="url(#clip2_6582_705)">
<mask id="mask0_6582_705" style="mask-type:luminance" maskUnits="userSpaceOnUse" x="0" y="0" width="60" height="60">
<path d="M59.7691 0.470215H0.691406V59.5479H59.7691V0.470215Z" fill="white"/>
</mask>
<g mask="url(#mask0_6582_705)">
<path d="M13.586 41.8182C13.0974 41.4089 12.3697 41.4733 11.9605 41.9618L9.07532 45.4065L8.03256 44.523C7.54632 44.1111 6.81835 44.1713 6.40631 44.6576C5.99438 45.1438 6.05461 45.872 6.54085 46.2839L8.46895 47.9174C8.67811 48.0946 8.94272 48.1909 9.21485 48.1909C9.24755 48.1909 9.28034 48.1894 9.31321 48.1866C9.61923 48.1604 9.90229 48.0133 10.0994 47.7778L13.7299 43.4436C14.1388 42.9551 14.0744 42.2274 13.586 41.8182Z" fill="#3BB77E"/>
<path d="M37.5697 19.2549V22.6703C37.5697 23.0972 35.862 24.378 35.4351 24.378H27.7504C27.0388 24.2357 25.6157 24.2073 25.6157 25.2319V28.2204L23.908 28.6473C23.4811 28.9319 22.6272 29.5866 22.6272 29.9281C22.6272 30.355 22.2003 31.2089 22.6272 31.6358C23.0542 32.0627 23.9079 32.4897 24.3349 32.9166C24.7618 33.3435 25.6157 32.9166 25.6157 33.3435V35.0512C25.6157 35.3928 25.9003 36.332 26.0426 36.759C26.3272 37.0435 26.9818 37.6128 27.3234 37.6128C27.6649 37.6128 28.3196 37.8974 28.6042 38.0397V39.3205C28.6042 39.6621 29.1734 40.6013 29.458 41.0282C29.8849 41.3128 30.9096 41.8821 31.5927 41.8821C32.4465 41.8821 39.7043 42.736 40.9851 42.736C42.0097 42.736 45.3967 42.1667 46.9621 41.8821L49.9506 39.7475L54.2199 38.8936H56.7814L58.4892 38.0397V35.9051L58.9161 26.9396L58.0622 25.2319H55.0737C54.7322 25.2319 53.2237 24.0934 52.5122 23.5242C51.9429 23.0972 50.8044 22.158 50.8044 21.8165C50.8044 21.4749 48.2429 20.2511 46.9621 19.6818L45.2544 19.2549H40.9851H38.8504H37.5697Z" fill="#FDC040"/>
<path d="M22.1992 7.30078V17.5471L25.6147 16.2663L26.8954 15.4124L31.1647 17.5471L32.4455 16.2663L32.0186 8.15464L30.7378 7.30078H26.4685H22.1992Z" fill="#FDC040"/>
<path d="M37.5687 19.2548C37.5687 20.251 37.5687 22.3287 37.5687 22.6702M37.5687 19.2548V22.6702M37.5687 19.2548H38.8494M37.5687 22.6702C37.5687 23.0971 35.861 24.3779 35.4341 24.3779M38.8494 19.2548H40.9841H45.2534L46.9611 19.6817C48.2419 20.251 50.8034 21.4748 50.8034 21.8164C50.8034 22.1579 51.9419 23.0971 52.5111 23.5241C53.2227 24.0933 54.7312 25.2318 55.0727 25.2318M38.8494 19.2548H37.1417M35.4341 24.3779C35.0925 24.3779 30.1686 24.3779 27.7494 24.3779M35.4341 24.3779H27.7494M27.7494 24.3779C27.0378 24.2356 25.6147 24.2072 25.6147 25.2318M25.6147 25.2318C25.6147 26.2564 25.6147 27.651 25.6147 28.2203M25.6147 25.2318V28.2203M25.6147 28.2203L23.907 28.6472C23.4801 28.9318 22.6262 29.5865 22.6262 29.928C22.6262 30.3549 22.1993 31.2088 22.6262 31.6357C23.0532 32.0626 23.9069 32.4896 24.3339 32.9165C24.7608 33.3434 25.6147 32.9165 25.6147 33.3434M25.6147 33.3434C25.6147 33.7704 25.6147 34.6242 25.6147 35.0511M25.6147 33.3434V35.0511M25.6147 35.0511C25.6147 35.3927 25.8993 36.3319 26.0416 36.7589C26.3262 37.0434 26.9808 37.6127 27.3224 37.6127C27.6639 37.6127 28.3186 37.8973 28.6031 38.0396M28.6031 38.0396C28.6031 38.3242 28.6031 38.9789 28.6031 39.3204M28.6031 38.0396V39.3204M28.6031 39.3204C28.6031 39.662 29.1724 40.6012 29.457 41.0281C29.8839 41.3127 30.9086 41.882 31.5916 41.882C32.4455 41.882 39.7033 42.7359 40.9841 42.7359C42.0087 42.7359 45.3957 42.1666 46.9611 41.882L49.9496 39.7474L54.2189 38.8935H56.7804L58.4881 38.0396V35.905L58.9151 26.9395L58.0612 25.2318M58.0612 25.2318C57.2074 25.2318 55.4143 25.2318 55.0727 25.2318M58.0612 25.2318H55.0727M22.1992 7.30078C22.1992 7.64232 22.1992 14.274 22.1992 17.5471M22.1992 7.30078H26.4685H30.7378L32.0186 8.15464L32.4455 16.2663L31.1647 17.5471L26.8954 15.4124L25.6147 16.2663L22.1992 17.5471M22.1992 7.30078V17.5471" stroke="black" stroke-width="0.853857" stroke-linecap="round" stroke-linejoin="round"/>
<path d="M57.3255 24.0217H55.6671C54.2781 23.9574 53.161 22.7744 51.8686 21.4054C51.0049 20.4908 50.0802 19.5114 48.9663 18.7855V8.92185C48.9663 7.18448 47.5528 5.771 45.8155 5.771H8.17962C6.44225 5.771 5.02889 7.18448 5.02889 8.92185V16.9259C5.02889 17.5633 5.54547 18.0798 6.18275 18.0798C6.82002 18.0798 7.33661 17.5633 7.33661 16.9259V8.92185C7.33661 8.46492 7.72269 8.07872 8.17962 8.07872H20.9482V18.2877C20.9482 18.7072 21.1758 19.0936 21.5426 19.297C21.7168 19.3936 21.9095 19.4416 22.1019 19.4416C22.3145 19.4416 22.5268 19.3829 22.7135 19.2662L26.999 16.5877L31.2813 19.2661C31.6371 19.4884 32.0854 19.5005 32.4523 19.2971C32.8194 19.0938 33.0471 18.7074 33.0471 18.2878V8.07872H45.8157C46.2726 8.07872 46.6587 8.4648 46.6587 8.92185V17.8073C46.2834 17.7287 45.8893 17.6815 45.4726 17.6741C45.4658 17.674 45.4591 17.674 45.4523 17.674H42.5291H40.2587H38.951C38.945 17.674 38.9392 17.674 38.9331 17.6741C37.5422 17.6957 36.8274 18.3263 36.4727 18.8514C35.9222 19.6665 35.8713 20.7704 36.3287 21.9585C36.4352 22.2359 36.5649 22.4983 36.7145 22.7449H27.9649C26.085 22.7449 24.5555 24.2743 24.5555 26.1542C24.5555 26.5407 24.6202 26.9125 24.7389 27.2591H24.4327C22.5528 27.2591 21.0234 28.7886 21.0234 30.6686C21.0234 32.5485 22.5528 34.078 24.4327 34.078H24.7381C24.6198 34.4237 24.5554 34.7943 24.5554 35.1797C24.5554 37.0008 25.9879 38.4933 27.784 38.5876C27.6647 38.9347 27.5998 39.3068 27.5998 39.694C27.5998 41.5741 29.1292 43.1035 31.0091 43.1035H45.3048C45.7971 43.1035 46.2453 43.0433 46.6584 42.9401V46.5556C46.6584 47.0144 46.2723 47.4019 45.8154 47.4019H19.0884C19.3148 46.5958 19.4385 45.7471 19.4385 44.8696C19.4385 39.7008 15.2335 35.4956 10.0648 35.4956C9.116 35.4956 8.20005 35.6385 7.33626 35.9019V27.3C7.33626 26.6627 6.81967 26.1461 6.1824 26.1461C5.54512 26.1461 5.02854 26.6627 5.02854 27.3V36.9697C2.42347 38.6368 0.691406 41.5538 0.691406 44.8697C0.691406 50.0404 4.89642 54.247 10.0651 54.247C13.4648 54.247 16.4471 52.4268 18.0907 49.7097H45.8157C47.553 49.7097 48.9664 48.2948 48.9664 46.5557V41.8049C49.2212 41.6228 49.4648 41.4361 49.7009 41.2539C50.7199 40.4687 51.5999 39.7906 53.0011 39.7906H57.3255C58.6729 39.7906 59.7692 38.6959 59.7692 37.3502V26.4654C59.7691 25.1178 58.6729 24.0217 57.3255 24.0217ZM30.7393 16.2051L27.6111 14.2485C27.2369 14.0146 26.7621 14.0145 26.3876 14.2484L23.2559 16.2058V8.07872H30.7393V16.2051ZM10.0651 51.9393C6.1689 51.9393 2.99913 48.7679 2.99913 44.8697C2.99913 40.9734 6.1689 37.8034 10.0651 37.8034C13.9614 37.8034 17.1312 40.9734 17.1312 44.8697C17.1312 48.7679 13.9614 51.9393 10.0651 51.9393ZM57.4614 37.3502C57.4614 37.421 57.3979 37.4829 57.3255 37.4829H53.001C50.8136 37.4829 49.4742 38.5152 48.2922 39.426C47.2991 40.1914 46.5147 40.7958 45.3049 40.7958H31.0093C30.402 40.7958 29.9078 40.3016 29.9078 39.6942C29.9078 39.0867 30.402 38.5925 31.0093 38.5925H34.8395C35.4768 38.5925 35.9934 38.0759 35.9934 37.4386C35.9934 36.8013 35.4768 36.2848 34.8395 36.2848H27.965C27.3575 36.2848 26.8634 35.7892 26.8634 35.1798C26.8634 34.5723 27.3576 34.0781 27.965 34.0781H34.8395C35.4768 34.0781 35.9934 33.5615 35.9934 32.9242C35.9934 32.287 35.4768 31.7704 34.8395 31.7704H24.4328C23.8254 31.7704 23.3312 31.2762 23.3312 30.6687C23.3312 30.0612 23.8254 29.5669 24.4328 29.5669H34.8395C35.4768 29.5669 35.9934 29.0504 35.9934 28.4131C35.9934 27.7758 35.4768 27.2592 34.8395 27.2592H27.965C27.3575 27.2592 26.8634 26.7636 26.8634 26.1543C26.8634 25.5468 27.3576 25.0527 27.965 25.0527H40.8399H43.3441H45.017C45.6543 25.0527 46.1708 24.5361 46.1708 23.8989C46.1708 23.2616 45.6543 22.745 45.017 22.745H43.3441H40.8399C39.7845 22.745 38.8594 22.1117 38.4828 21.1306C38.2633 20.5604 38.3231 20.2352 38.3854 20.1429C38.448 20.0504 38.6733 19.9873 38.9609 19.9818H42.5291H45.4417C47.3875 20.0207 48.7492 21.4631 50.1909 22.9899C51.699 24.5872 53.2584 26.2388 55.5988 26.3285C55.6135 26.3291 55.6282 26.3294 55.643 26.3294H57.3257C57.3993 26.3294 57.4616 26.3916 57.4616 26.4652L57.4614 37.3502Z" fill="#3BB77E"/>
<path d="M6.18317 23.2685C6.82044 23.2685 7.33703 22.7487 7.33703 22.1113C7.33703 21.4741 6.82044 20.9575 6.18317 20.9575C5.54589 20.9575 5.0293 21.4741 5.0293 22.1113V22.118C5.0293 22.7551 5.54589 23.2685 6.18317 23.2685Z" fill="#3BB77E"/>
</g>
</g>
</g>
</g>
<defs>
<clipPath id="clip0_6582_705">
<rect width="59.77" height="59.77" fill="white" transform="translate(0 0.470215)"/>
</clipPath>
<clipPath id="clip1_6582_705">
<rect width="59.77" height="59.77" fill="white" transform="translate(0 0.470215)"/>
</clipPath>
<clipPath id="clip2_6582_705">
<rect width="59.77" height="59.77" fill="white" transform="translate(0 0.470215)"/>
</clipPath>
</defs>
</svg>
