<svg xmlns="http://www.w3.org/2000/svg" width="61" height="61" fill="none"><g clip-path="url(#a)"><g clip-path="url(#b)"><g clip-path="url(#c)"><mask id="d" width="60" height="61" x="1" y="0" maskUnits="userSpaceOnUse" style="mask-type:luminance"><path fill="#fff" d="M60.338.92H1.148v59.19h59.19z"/></mask><g mask="url(#d)"><path fill="#FDC040" d="M12.93 15.063V30.92c3-1 10.371-1.2 15.857 6 1.286 2.714 3.343 9 1.286 12.429l6 3.428V27.063z"/><path fill="#3BB77E" d="M59.738 13.722 36.686 1.063a1.16 1.16 0 0 0-1.113 0l-8.689 4.771a1.16 1.16 0 0 0-.496.273l-13.867 7.615c-.37.202-.6.59-.6 1.013v15.31a15.3 15.3 0 0 0-6.265 3.804 15.39 15.39 0 0 0-2.947 17.63 1.155 1.155 0 1 0 2.077-1.015 13.07 13.07 0 0 1 2.505-14.98 12.98 12.98 0 0 1 9.242-3.829c3.491 0 6.773 1.36 9.242 3.829a12.98 12.98 0 0 1 3.828 9.241c0 3.491-1.36 6.773-3.828 9.242a13.07 13.07 0 0 1-14.98 2.505 1.156 1.156 0 1 0-1.016 2.077 15.389 15.389 0 0 0 17.63-2.947 15.4 15.4 0 0 0 3.183-4.615l4.981 2.735a1.15 1.15 0 0 0 1.113 0l23.052-12.658c.37-.203.6-.591.6-1.013v-8.034a1.156 1.156 0 1 0-2.312 0v7.35L37.289 50.753V28.075l6.844-3.758v5.957a1.155 1.155 0 0 0 1.713 1.013l4.94-2.719c.37-.203.598-.59.598-1.012v-7.22l6.642-3.647v6.08a1.156 1.156 0 1 0 2.312 0v-8.034c0-.422-.23-.81-.6-1.013M36.129 3.395l20.65 11.34-6.513 3.577-20.65-11.34zm0 22.68-20.65-11.34 6.753-3.708 20.65 11.339zm9.155-5.028L24.634 9.708l2.58-1.417 20.65 11.34zM27.41 33.85a15.28 15.28 0 0 0-10.877-4.505 15.6 15.6 0 0 0-2.3.17V16.688l20.744 11.39v22.678l-3.6-1.977c.355-1.305.538-2.666.538-4.055 0-4.108-1.6-7.971-4.505-10.876m21.663-6.976-2.628 1.446v-5.271l2.628-1.443z"/><path fill="#3BB77E" d="M59.18 26.23c-.304 0-.603.124-.818.34a1.16 1.16 0 0 0-.339.817c0 .303.124.601.34.816.214.216.513.34.816.34.304 0 .603-.124.818-.34.215-.215.339-.513.339-.816 0-.305-.124-.603-.34-.818a1.17 1.17 0 0 0-.817-.338M12.645 45.88a1.156 1.156 0 0 0 .817-1.973l-.8-.801h6.832A3.01 3.01 0 0 1 22.5 46.11a3.01 3.01 0 0 1-3.006 3.006h-4.048a1.156 1.156 0 1 0 0 2.312h4.048a5.324 5.324 0 0 0 5.318-5.318 5.324 5.324 0 0 0-5.318-5.317h-6.832l.8-.801a1.156 1.156 0 1 0-1.634-1.635l-2.775 2.774a1.157 1.157 0 0 0 0 1.636l2.775 2.774c.226.225.521.338.817.338M6.473 55.942a1.15 1.15 0 0 1-.883-.412l-.002-.002a1.156 1.156 0 1 1 .885.413"/></g></g></g></g><defs><clipPath id="a"><path fill="#fff" d="M.5.92h60v60H.5z"/></clipPath><clipPath id="b"><path fill="#fff" d="M.5.92h60v60H.5z"/></clipPath><clipPath id="c"><path fill="#fff" d="M.5.92h60v60H.5z"/></clipPath></defs></svg>