<svg xmlns="http://www.w3.org/2000/svg" width="61" height="61" fill="none"><g clip-path="url(#a)"><g clip-path="url(#b)"><g clip-path="url(#c)"><mask id="d" width="61" height="61" x="0" y="0" maskUnits="userSpaceOnUse" style="mask-type:luminance"><path fill="#fff" d="M60.13.92H.823v59.305H60.13z"/></mask><g mask="url(#d)"><path fill="#FDC040" d="M40.784 58.348c8.521 0 15.429-6.907 15.429-15.428S49.305 27.49 40.784 27.49c-8.52 0-15.428 6.908-15.428 15.429 0 8.52 6.907 15.428 15.428 15.428"/><path fill="#3BB77E" d="M43.907 26.593V15.369c0-.321-.149-.618-.359-.853L30.965 1.303a1.25 1.25 0 0 0-.902-.383h-19.95C6.43.92 3.488 3.923 3.488 7.607V45.33a6.605 6.605 0 0 0 6.625 6.637h15.748c2.978 4.944 8.392 8.257 14.56 8.257 9.37 0 17.02-7.614 17.02-16.995.013-8.195-5.871-15.043-13.534-16.637M31.299 5.259l8.442 8.886h-5.475c-1.632 0-2.967-1.347-2.967-2.978zM10.113 49.496a4.14 4.14 0 0 1-4.152-4.165V7.607c0-2.324 1.841-4.215 4.152-4.215h18.714v7.775c0 3.003 2.435 5.45 5.439 5.45h7.169v9.654c-.371-.012-.668-.05-.99-.05-4.313 0-8.28 1.657-11.272 4.253H13.476a1.24 1.24 0 0 0-1.237 1.235c0 .68.556 1.237 1.236 1.237h13.4c-.879 1.236-1.608 2.472-2.176 3.832H13.475a1.24 1.24 0 0 0-1.236 1.236c0 .68.556 1.236 1.236 1.236h10.42a16.6 16.6 0 0 0-.47 3.98c0 2.224.433 4.425 1.212 6.279H10.113zm30.32 8.27c-8.009 0-14.523-6.515-14.523-14.524s6.501-14.524 14.524-14.524c8.021 0 14.523 6.514 14.523 14.524s-6.514 14.523-14.523 14.523"/><path fill="#3BB77E" d="M13.474 26.753h12.521a1.24 1.24 0 0 0 1.236-1.236 1.24 1.24 0 0 0-1.236-1.236h-12.52a1.24 1.24 0 0 0-1.237 1.236c0 .68.556 1.236 1.236 1.236M40.027 35.616a1.24 1.24 0 0 0 .642-.013 3.165 3.165 0 0 1 2.905 3.152c0 .68.556 1.236 1.236 1.236a1.24 1.24 0 0 0 1.236-1.236 5.65 5.65 0 0 0-4.487-5.525v-.791a1.24 1.24 0 0 0-1.236-1.236 1.24 1.24 0 0 0-1.236 1.236v.84a5.645 5.645 0 0 0-4.314 5.476 5.64 5.64 0 0 0 5.637 5.636 3.17 3.17 0 0 1 0 6.341 3.17 3.17 0 0 1-3.164-3.164 1.24 1.24 0 0 0-1.236-1.236 1.24 1.24 0 0 0-1.237 1.236 5.634 5.634 0 0 0 4.314 5.475v1.274c0 .68.556 1.236 1.236 1.236a1.24 1.24 0 0 0 1.236-1.236V53.08a5.65 5.65 0 0 0 4.487-5.526 5.64 5.64 0 0 0-5.636-5.636 3.17 3.17 0 0 1-3.164-3.164 3.166 3.166 0 0 1 2.78-3.14"/></g></g></g></g><defs><clipPath id="a"><path fill="#fff" d="M.5.92h60v60H.5z"/></clipPath><clipPath id="b"><path fill="#fff" d="M.5.92h60v60H.5z"/></clipPath><clipPath id="c"><path fill="#fff" d="M.5.92h60v60H.5z"/></clipPath></defs></svg>