<svg xmlns="http://www.w3.org/2000/svg" width="61" height="61" fill="none"><g clip-path="url(#a)"><g clip-path="url(#b)"><g clip-path="url(#c)"><mask id="d" width="60" height="61" x="0" y="0" maskUnits="userSpaceOnUse" style="mask-type:luminance"><path fill="#fff" d="M59.97.92H.663v59.305H59.97z"/></mask><g mask="url(#d)"><path fill="#FDC040" d="m38.645 29.206 3-4.715 4.285-2.142c.572-.143 1.8-.343 2.143 0 .343.342 5.286 7 7.714 10.285l2.143 3.857c-.428.858-1.371 2.657-1.714 3s-3.572 1.858-5.143 2.572c-.857.143-2.657.428-3 .428s-4.428-5.428-6.428-8.142l-2.25-3.858z"/><path fill="#FDC040" d="M48.07 42.491c-.343 0-4.428-5.428-6.428-8.143l-2.25-3.857h-5.893c-.429 0-2.572.857-3.429 1.286L27.5 33.063c-.857.428-1.714 1.285-2.143 1.714-.429.428-1.286 1.714-1.286 2.143s0 1.285.429 1.714c.428.429 1.286.857 1.714.857h2.572c.685 0 2.571-.857 3.428-1.285.286.142.943.514 1.286.857s3.286 2.428 4.714 3.428l3.429 3.429c.571.285 1.8.771 2.143.428s1.571-1.285 2.143-1.714l1.285-.857zM13.785 47.206c0 .685 1.143 2 1.714 2.571l3 2.572 1.715 1.285 1.714 1.715c.572.285 1.714.943 1.714 1.285 0 .343 1.715.715 2.572.858.428-.286 1.371-.943 1.714-1.286.429-.429.429-.429.429-1.286s0-1.714-.429-2.571-.429-2.572-.857-3c-.429-.429-2.143-1.286-2.143-1.715 0-.428-1.286-2.142-1.714-2.571-.429-.429-1.286-2.143-1.715-2.572-.428-.428-1.714-1.285-2.571-.857-.857.429-3.429 2.572-3.857 3-.343.343-1 1.858-1.286 2.572M21.928 5.206c2.57 3.571 9.942 10.542 18.857 9.857l-1.715 5.143-2.571 2.142-8.143 2.572-6.429-2.143-3.857-6.857.429-5.572 2.143-3.857z"/><path fill="#3BB77E" d="M29.357 16.327c-.453 0-1.007-.066-1.387-.49-.132-.149-.248-.287-.36-.403-.905-.953-2.464.37-1.52 1.607l.228.294q.224.277.8.645.559.358 1.251.512v1.634c0 .562.46 1.025 1.02 1.025.566 0 1.044-.463 1.044-1.025v-1.643a3.7 3.7 0 0 0 1.893-1.078q.783-.819.783-2.173 0-.921-.357-1.54-.357-.617-.875-.86a8 8 0 0 0-1.15-.427 9 9 0 0 0-1.146-.261 2.1 2.1 0 0 1-.875-.311q-.357-.238-.357-.619c0-1.217 1.784-1.068 2.57-.407 1.16.976 2.457-.81 1.113-1.818l-.155-.14a3.4 3.4 0 0 0-.558-.313 4 4 0 0 0-.886-.295V6.823c0-.562-.459-1.025-1.023-1.025a1.03 1.03 0 0 0-1.024 1.025v1.402c-.753.149-1.378.523-1.81 1.075a3 3 0 0 0-.657 1.878q0 1.045.485 1.723t1.183.955a10 10 0 0 0 1.387.443c.465.113.858.235 1.182.378q.486.207.485.588 0 1.062-1.284 1.062"/><path fill="#3BB77E" d="m58.743 34.377-9.518-12.19a3.36 3.36 0 0 0-2.666-1.296c-.744 0-1.448.236-2.038.684l-6.229 4.748a3.3 3.3 0 0 0-1.31 2.616c-2.374-.18-4.826.001-7.208 1.55l-.107.069-6.025-.922q.019-.314-.022-.631a3.3 3.3 0 0 0-1.281-2.216l-6.23-4.744a3.384 3.384 0 0 0-4.706.606l-2.269 2.907a1.168 1.168 0 1 0 1.842 1.437l2.268-2.905a1.053 1.053 0 0 1 1.447-.188l6.232 4.745a.98.98 0 0 1 .38.658.98.98 0 0 1-.2.734L11.585 42.23a1.055 1.055 0 0 1-1.445.19L3.91 37.67a.98.98 0 0 1-.18-1.39l1.618-2.073a1.168 1.168 0 1 0-1.842-1.438L1.89 34.842a3.3 3.3 0 0 0-.678 2.468 3.3 3.3 0 0 0 1.283 2.22l6.23 4.75c.607.46 1.324.682 2.036.682.412 0 .821-.075 1.208-.221l.806 1.104c-.438.8-.507 1.76-.154 2.687.503 1.326 1.691 2.224 2.977 2.267q.059.284.17.564c.518 1.284 1.701 2.158 2.973 2.215q.007.05.017.1c.241 1.176 1.143 2.18 2.297 2.558q.442.143.883.154c.113.474.347.93.708 1.332a3.08 3.08 0 0 0 2.286 1.026c.655 0 1.352-.213 2.021-.702l1.323 1.236a3.46 3.46 0 0 0 2.362.943 3.3 3.3 0 0 0 2.34-.968c.384-.384.681-.842.874-1.323q.494.148.956.147c.866 0 1.631-.366 2.179-.93a3.6 3.6 0 0 0 .91-1.732 3 3 0 0 0 .178.006c.921 0 1.805-.357 2.43-.983.437-.437.738-.976.881-1.565q.335.066.67.066.423 0 .838-.105a3.13 3.13 0 0 0 2.27-2.298c.253-1.041-.007-2.138-.716-3.135 1.834-1.476 2.576-2.203 3.414-3.563a3.37 3.37 0 0 0 2.006.653c.746 0 1.451-.237 2.038-.686l6.232-4.745a3.3 3.3 0 0 0 1.281-2.215 3.3 3.3 0 0 0-.675-2.472M16.208 48.223q-.27.244-.516.244c-.336 0-.726-.336-.889-.764q-.222-.587.206-.968l.004-.003.003-.003 3.935-3.498c.33-.292.66-.446.959-.446.436 0 .761.33.88.639.126.328.05.621-.225.87l-.686.619-.002.001-.01.01-.075.067zm3.18 2.792c-.177.157-.346.233-.516.233-.355 0-.767-.334-.938-.76-.19-.468.035-.685.106-.753q.07-.066.157-.157l.001-.002.012-.01c.225-.2 2.204-1.989 3.15-2.843l.07-.063c.32-.282.645-.43.939-.43.464 0 .809.355.933.684.124.328.05.615-.22.852l-.242.213-.005.005-.002.002zm3.482 2.521-.047.045-.274.247c-.244.22-.487.28-.768.188-.354-.116-.663-.456-.736-.808-.063-.306.06-.59.37-.864l.39-.34.028-.028 2.553-2.245c.612-.54 1.218-.595 1.621-.144.057.063.538.635-.05 1.165l-1.567 1.415-.05.044-.017.017-1.435 1.294zm1.512 2.623c-.123-.136-.36-.49.03-.865l1.564-1.411q.178-.153.339-.237l.014-.007c.631-.337.973.055 1.063.184.115.165.256.489-.098.807l-1.072.963-.012.01-.465.418c-.763.686-1.236.28-1.363.138m18.51-6.17a.78.78 0 0 1-.579.586c-.491.125-1.113-.147-1.683-.732a3 3 0 0 0-.132-.139l-4.409-4.358a1.168 1.168 0 0 0-1.642 1.661l4.402 4.352.022.023c.176.18.273.422.274.684.002.276-.103.534-.295.725-.188.19-.47.297-.776.297h-.012a1.04 1.04 0 0 1-.69-.25 3 3 0 0 0-.24-.275l-3.224-3.227a1.168 1.168 0 0 0-1.653 1.65l3.057 3.062q.055.08.125.154l.13.134c.167.32.063.857-.257 1.188-.495.51-1.192.06-1.689-.406l-1.38-1.3a1.168 1.168 0 0 0-1.601 1.701l1.054.993.007.007c.024.023.06.057.062.175.005.273-.176.649-.44.912-.384.385-1.023.371-1.453-.031l-1.156-1.08.141-.128c1.146-1.029 1.331-2.626.45-3.884a3.1 3.1 0 0 0-1.049-.949c.568-1.12.41-2.48-.508-3.505a3.24 3.24 0 0 0-2.063-1.06 3.2 3.2 0 0 0-.197-.88 3.4 3.4 0 0 0-2.317-2.091 3.1 3.1 0 0 0-.2-1.414c-.493-1.277-1.722-2.135-3.061-2.135-.878 0-1.745.358-2.51 1.035l-2.982 2.651-.655-.898 8.891-11.389 4.066.622-.615.4c-3.294 2.137-3.536 4.622-2.663 6.236.699 1.291 2.093 2.03 3.573 2.03a4.5 4.5 0 0 0 1.876-.41l3.08-1.528 1.777 1.62.006.003.005.005 8.217 7.308c.704.626 1.047 1.32.917 1.855m-.098-4.253-7.478-6.65-2.363-2.152a1.17 1.17 0 0 0-1.305-.183l-3.77 1.869c-1.024.44-2.031.021-2.381-.625-.48-.889.24-2.102 1.88-3.166l3.67-2.381c1.99-1.294 4.077-1.394 6.932-1.062l8.269 10.594c-.873 1.567-1.336 2.065-3.453 3.756m14.307-9.188a.98.98 0 0 1-.38.657l-6.234 4.747c-.224.171-.46.207-.62.207-.327 0-.628-.144-.824-.395l-9.516-12.193a.981.981 0 0 1 .181-1.39l6.227-4.747c.226-.171.464-.207.624-.207.328 0 .628.144.824.395l9.518 12.191c.163.21.234.471.2.735"/><path fill="#3BB77E" d="M23.462 24.65a12.66 12.66 0 0 0 5.991 1.512c6.952 0 12.609-5.663 12.609-12.623 0-4.858-2.836-9.337-7.224-11.412A12.5 12.5 0 0 0 29.453.92c-6.95 0-12.605 5.66-12.605 12.62 0 4.64 2.534 8.897 6.614 11.11m5.991-21.394c1.534 0 3.01.33 4.385.982a10.33 10.33 0 0 1 5.887 9.301c0 5.672-4.608 10.287-10.272 10.287-1.7 0-3.387-.427-4.88-1.232a10.29 10.29 0 0 1-5.39-9.055c0-5.67 4.608-10.283 10.27-10.283M6.514 30.794a1.166 1.166 0 0 0 1.642-.185l.012-.016a1.168 1.168 0 1 0-1.825-1.457l-.014.017a1.17 1.17 0 0 0 .185 1.641"/></g></g></g></g><defs><clipPath id="a"><path fill="#fff" d="M.5.92h60v60H.5z"/></clipPath><clipPath id="b"><path fill="#fff" d="M.5.92h60v60H.5z"/></clipPath><clipPath id="c"><path fill="#fff" d="M.5.92h60v60H.5z"/></clipPath></defs></svg>