<svg xmlns="http://www.w3.org/2000/svg" width="61" height="61" fill="none"><g clip-path="url(#a)"><g clip-path="url(#b)"><mask id="c" width="60" height="61" x="0" y="0" maskUnits="userSpaceOnUse" style="mask-type:luminance"><path fill="#fff" d="M59.805.92H.5v59.305h59.305z"/></mask><g mask="url(#c)"><path fill="#FDC040" d="M38.213 5.206H29.64L19.356 15.49l5.142 3 5.143-5.143 10.715 10.715 3.857 4.714 5.571.857 2.572-4.714V8.634L48.07 5.206z"/><path fill="#3BB77E" d="M55.867 13.253h-2.319l.002-4.146a5.053 5.053 0 0 0-5.045-5.05l-17.599-.01h-.002c-1.002 0-1.944.39-2.652 1.099L1.978 31.419A5.01 5.01 0 0 0 .5 34.99c0 1.348.525 2.615 1.478 3.569l17.05 17.05a5.03 5.03 0 0 0 3.57 1.476 5.03 5.03 0 0 0 3.57-1.476l16.541-16.542a1.158 1.158 0 1 0-1.638-1.638L24.529 53.97a2.734 2.734 0 0 1-3.862 0L3.617 36.92a2.71 2.71 0 0 1-.8-1.931c0-.73.284-1.416.8-1.932L29.89 6.784c.27-.27.63-.42 1.014-.42h.001l17.599.01a2.734 2.734 0 0 1 2.73 2.732l-.006 9.707h-5.217c-.45 0-.856-.184-1.15-.48a4.3 4.3 0 0 0 1.334-.903 4.275 4.275 0 0 0 0-6.038 4.274 4.274 0 0 0-6.039 0 4.275 4.275 0 0 0 0 6.038 4.25 4.25 0 0 0 2.176 1.165 3.945 3.945 0 0 0 3.679 2.534h5.216l-.003 5.553c0 .383-.15.743-.42 1.013l-3.18 3.18a1.158 1.158 0 0 0 1.637 1.639l3.18-3.18a3.73 3.73 0 0 0 1.1-2.65l.002-5.555h2.324a3.943 3.943 0 0 0 3.938-3.938 3.943 3.943 0 0 0-3.938-3.938m-14.073-.223a1.95 1.95 0 0 1 1.382-.57 1.95 1.95 0 0 1 1.683.965 3.95 3.95 0 0 0-2.636 2.69 2 2 0 0 1-.429-.323c-.761-.762-.761-2 0-2.762m14.073 5.783h-2.322l.002-3.244h2.32c.894 0 1.621.728 1.621 1.622s-.727 1.622-1.621 1.622"/><path fill="#3BB77E" d="M19.195 33.272a1.16 1.16 0 0 0 1.426.805l11.89-3.31a1.159 1.159 0 0 0-.62-2.231L20 31.846c-.616.171-.976.81-.805 1.426M24.43 34.8c-.645.646-1 1.503-1 2.416 0 .912.355 1.77 1 2.414.666.666 1.54 1 2.415 1 .874 0 1.75-.334 2.415-1a3.42 3.42 0 0 0 0-4.83 3.42 3.42 0 0 0-4.83 0m3.192 3.192a1.1 1.1 0 0 1-1.554-1.554 1.096 1.096 0 0 1 1.554 0 1.1 1.1 0 0 1 0 1.554M29.833 27.904a3.42 3.42 0 0 0 0-4.83 3.4 3.4 0 0 0-2.416-1c-.912 0-1.77.355-2.414 1a3.42 3.42 0 0 0 0 4.83c.666.666 1.54.999 2.414.999s1.75-.333 2.416-.999m-3.192-3.192c.207-.208.483-.322.776-.322s.57.114.777.322a1.1 1.1 0 0 1-1.553 1.554 1.1 1.1 0 0 1 0-1.554"/><path fill="#3BB77E" d="M12.019 30.878a1.16 1.16 0 0 0-1.639 0L7.09 34.17a1.16 1.16 0 0 0 0 1.637l14.688 14.689a1.156 1.156 0 0 0 1.638 0l21.96-21.961a1.16 1.16 0 0 0 0-1.639L30.688 12.21a1.16 1.16 0 0 0-1.637 0L16.932 24.326a1.159 1.159 0 0 0 1.638 1.638l11.298-11.298 13.05 13.05-20.322 20.322-13.05-13.05 2.472-2.472a1.16 1.16 0 0 0 0-1.638M45.166 33.813c-.305 0-.603.123-.819.339-.215.215-.34.514-.34.819s.125.603.34.819.514.34.82.34c.304 0 .602-.125.818-.34s.34-.515.34-.82-.125-.603-.34-.818a1.17 1.17 0 0 0-.819-.34"/><path fill="#3BB77E" d="M15.297 29.24a1.16 1.16 0 0 0 0-1.638 1.17 1.17 0 0 0-.818-.34c-.305 0-.604.124-.82.34-.215.215-.339.514-.339.819a1.163 1.163 0 0 0 1.159 1.158c.305 0 .603-.123.818-.34"/></g></g></g><defs><clipPath id="a"><path fill="#fff" d="M.5.92h60v60H.5z"/></clipPath><clipPath id="b"><path fill="#fff" d="M.5.92h60v60H.5z"/></clipPath></defs></svg>